<?xml version="1.0" encoding="utf-8"?>
<!-- Generator: Adobe Illustrator 25.2.1, SVG Export Plug-In . SVG Version: 6.00 Build 0)  -->
<svg version="1.1" id="Layer_1" xmlns="http://www.w3.org/2000/svg" xmlns:xlink="http://www.w3.org/1999/xlink" x="0px" y="0px"
	 viewBox="0 0 500 500" style="enable-background:new 0 0 500 500;" xml:space="preserve">
<path d="M341.6,277.1c-7.2-7.2-15.7-7.8-17.8-7.8c0,0,0,0-0.1,0c-2.1-0.2-4.1,0-6.1,0.4c-1.7,0.2-3.5,0.8-5.1,1.6
	c-2.1,0.9-4.2,2.3-6,3.9c-4.7,4.2-7.4,10-7.6,16.4c-0.5,13.2,9.8,24.7,23,25.6c0.3,0,0.5,0,0.8,0c-0.5,1-1.2,1.9-1.8,2.6
	c-4.8,5.5-13.5,8.1-24.7,7.3c-15.2-1-26.8-15.3-41.6-33.5c-0.2-0.3-0.5-0.5-0.7-0.8c4.9-12,9.4-26,13.2-41.4
	c17.5-1.5,34.2-6.1,47.6-13c19.7-10.3,30.3-25,30.9-42.3c0.5-15.1-4.1-27-13.6-35.3c-10-8.9-22.4-10.9-28.9-11.3
	c-12.5-0.8-24.8,4-35.6,14.2c-9.7,9.1-17.3,21.9-20.9,35.2c-2.2,7.8-4.3,15.9-6.2,23.5c-16.6-4.7-28.7-15.8-33.9-26.3
	c-3.7-7.4-4-15-3.4-20.5c4.2,5,10.2,8.3,17.1,8.7c0.3,0,0.6,0,0.9,0c6.1,0.2,11.9-1.9,16.3-5.9c4.7-4.2,7.4-10,7.6-16.4
	c0.5-13.1-9.8-24.5-22.7-25.6c-1.2-0.1-2.4-0.3-3.8-0.4c-9.1-0.6-18.3,2.6-25.2,8.8c-9.3,8.4-14.6,21.8-15.2,39
	c-0.5,15.2,6.4,31.4,19,44.4c10,10.4,22.5,17.6,36.2,21.3c-1.6,5.6-3.3,11.3-5,16.8c-11.6-8.8-23.6-13.2-37.3-14.2
	c-15.1-1-30.5,4-41.1,13.7c-9.3,8.4-14.4,19.5-14.8,32.4c-1.2,33.9,28.7,45.6,40.3,47.3c30.1,4.4,51.7-8.5,62-21.9
	c0.1-0.2,0.3-0.4,0.4-0.6c1,1.1,1.9,2.2,2.9,3.3c20.7,23.4,41.7,29.6,55.6,30.6c0.5,0,1.1,0,1.6,0.1c13.3,0.5,27.2-4.8,37.5-14
	c6.9-6.3,15.3-17.2,15.9-33.8C351.8,294.8,348.5,284.1,341.6,277.1z M185.1,317.3c-8.1-0.3-18.3-8.1-18.8-17.5
	c-0.3-4.2,1.5-8.6,4.6-11.6c4.1-4.1,10.6-6,18.8-5.7c0.6,0,1.1,0,1.7,0.1c11,0.8,18,5.7,24.9,13.7
	C208,311.1,198.1,317.7,185.1,317.3z M273.6,223.2c8.3-32.8,20.3-39.5,27-40.5c0.9-0.2,1.8-0.1,2.7-0.1c3.1,0.1,6,1.2,8,3
	c2.4,2.2,3.7,5.5,3.6,9.6c-0.2,4.9-2.6,9.5-7.2,13.7C301.1,214.8,288,220.6,273.6,223.2z"/>
</svg>
