<?xml version="1.0" encoding="utf-8"?>
<!-- Generator: Adobe Illustrator 24.2.1, SVG Export Plug-In . SVG Version: 6.00 Build 0)  -->
<svg version="1.1" id="Layer_1" xmlns="http://www.w3.org/2000/svg" xmlns:xlink="http://www.w3.org/1999/xlink" x="0px" y="0px"
	 viewBox="0 0 500 500" style="enable-background:new 0 0 500 500;" xml:space="preserve">
<style type="text/css">
	.st0{fill:#D94328;}
	.st1{fill:#F3E8D3;}
</style>
<circle class="st0" cx="250" cy="250" r="248.9"/>
<g>
	<g>
		<path class="st1" d="M268.2,455.9c-41.4,3.7-82.5-5-118.7-25.2l3.4-6.1c35,19.4,74.7,27.9,114.7,24.3L268.2,455.9z"/>
	</g>
	<g>
		<path class="st1" d="M263.8,50.7c-40.7-2.8-80.6,6.6-115.5,27.3l-3.5-5.9c36.1-21.4,77.4-31.2,119.6-28.3L263.8,50.7z"/>
	</g>
</g>
<g>
	<g>
		<path class="st1" d="M132.3,428.5l-3.9-3l-5.2,6.8l-6.1-4.7l5.2-6.8l-11.3-8.6l4-5.3l11.3,8.6l7.8-10.3c1.7-2.2,1.3-4.4-0.7-5.9
			c-2.1-1.6-4.7-1-6.7,2.2l-5.4-5c4.1-6,10.9-6.8,16-2.8c6.1,4.6,6.9,10.9,2.6,16.5l-7.7,10l3.9,3L132.3,428.5z"/>
		<path class="st1" d="M119.7,377.6c3.4-2.8,3.4-6.4,0.8-9.4c-3-3.3-7.4-3.5-11.2,0l-3,2.7c3.4-0.1,6.3,1.2,8.8,4
			c4.4,4.9,3.6,10.8-1.8,15.6l-13.1,11.9l-5.1-5.7l12-10.8c3.2-2.8,3.5-5.6,1.1-8.3c-2.6-2.9-6.4-2.8-10,0.5l-11,9.9l-5.1-5.7
			l21.8-19.5c6.6-5.9,15.6-5.7,21.6,1c5.5,6.1,5.7,13.8-0.2,18.6L119.7,377.6z"/>
		<path class="st1" d="M72.6,369.4l-3.9-6.6l2.7-1.5c-3.5-0.7-6.2-2.7-8.2-6.1c-4-6.9-1-15.5,6.8-19.9c7.6-4.4,16.7-2.9,20.7,3.9
			c2,3.4,2.4,6.8,1.3,10.1l14.6-8.5l3.9,6.6L72.6,369.4z M73.8,341.8c-4.3,2.5-5.8,7-3.4,11c2.3,4,7,4.9,11.2,2.4
			c4.3-2.5,5.8-7,3.5-11C82.8,340.2,78.1,339.3,73.8,341.8z"/>
		<path class="st1" d="M55.6,299.3l3.3-1.1l6.7,20.1c3.9-2.2,5.4-5.9,4.1-9.9c-1.1-3.3-4.1-5.3-7.4-4.8l-1-7.1c3.3-0.5,6.3,0.1,9,2
			c2.8,1.9,4.7,4.5,5.8,7.8c2.9,8.6-1.6,16.6-10.2,19.4c-8.6,2.9-17-0.6-19.8-9C43.5,309,47.6,302,55.6,299.3z M55.4,306.5
			c-2.9,1.2-4.3,4.6-3.1,8.2c1.2,3.4,4,5.3,7.6,5.2L55.4,306.5z"/>
		<path class="st1" d="M47.4,288.2l-2.7-18.2l7.3-1.1l2.7,18.3L47.4,288.2z"/>
		<path class="st1" d="M39.3,233.6l-16.2-0.5l0.3-7.7l43,1.4l-0.3,7.7l-3.1-0.1c2.6,2.4,3.8,5.6,3.7,9.5
			c-0.3,7.9-7.4,13.6-16.3,13.3c-8.8-0.3-15.7-6.4-15.5-14.4C35.1,239,36.6,235.9,39.3,233.6z M51.2,234c-4.9-0.2-8.7,3-8.8,7.5
			c-0.2,4.6,3.4,7.9,8.3,8.1c4.9,0.2,8.6-2.9,8.7-7.5C59.6,237.6,56.1,234.2,51.2,234z"/>
		<path class="st1" d="M38.9,210.3l1.7-7.5l2.6,0.6c-1.9-2.3-2.6-5.1-1.8-8.2c1.3-5.5,5.8-7.8,14-5.9l-0.5,7.7
			c-0.3-0.1-0.7-0.2-1.2-0.3c-3.4-0.8-5.3,0.1-5.9,2.7c-0.7,2.9,1.4,5.4,6.3,6.5l15.8,3.6L68,217L38.9,210.3z"/>
		<path class="st1" d="M42.8,164.3c2.5,0.9,3.7,3.7,2.8,6.2c-0.9,2.5-3.7,3.7-6.2,2.8c-2.5-0.9-3.7-3.8-2.8-6.1
			C37.6,164.7,40.3,163.4,42.8,164.3z M48.3,175.5l2.7-7.2l28,10.5l-2.7,7.2L48.3,175.5z"/>
		<path class="st1" d="M59.1,150l21.3,2.7L66.9,136l3.9-7l20.3,25l-3.9,7l-32-4L59.1,150z"/>
		<path class="st1" d="M105.2,107.6l2.6,2.2l-13.6,16.3c3.9,2.2,7.9,1.5,10.5-1.7c2.2-2.7,2.4-6.3,0.2-8.8l5.5-4.6
			c2.2,2.5,3.2,5.4,3.1,8.7c-0.1,3.3-1.3,6.3-3.6,9.1c-5.8,6.9-14.9,7.4-21.9,1.6c-7-5.8-8.4-14.8-2.7-21.6
			C90.6,102.4,98.7,102.1,105.2,107.6z M99,111.2c-2.5-1.9-6.1-1.3-8.6,1.7c-2.3,2.8-2.4,6.2-0.5,9.2L99,111.2z"/>
		<path class="st1" d="M105.4,88.4l6-4.9l1.8,2.2c0.1-3.4,1.6-6.2,4.4-8.5c5.1-4.2,10.9-3,15.5,2.5l12.1,14.8l-6,4.9L128,85.7
			c-2.6-3.2-5.3-3.8-8-1.6c-2.9,2.4-3,6.2,0.1,9.9l10.3,12.6l-6,4.9L105.4,88.4z"/>
	</g>
	<g>
		<path class="st1" d="M286.3,418.1l7.3-2.1l4.5,15.5c1.5-3.2,4.1-5.4,7.9-6.4c7.6-2.2,15.3,3,17.7,11.5c2.5,8.6-1.3,16.9-8.9,19.1
			c-3.8,1.1-7.2,0.7-10.1-1.2l0.9,3l-7.3,2.1L286.3,418.1z M316.4,438.6c-1.4-4.7-5.4-7.3-9.9-6c-4.3,1.2-6.5,5.6-5.1,10.3
			c1.3,4.7,5.5,7.1,9.8,5.9C315.7,447.5,317.8,443.4,316.4,438.6z"/>
		<path class="st1" d="M328.8,417.9l6.8-3.6l1.2,2.3c0.5-3,2.2-5.2,5.1-6.8c5-2.6,9.7-0.7,13.6,6.8l-6.2,4.6
			c-0.1-0.3-0.3-0.7-0.5-1.2c-1.6-3.1-3.5-4-5.9-2.8c-2.6,1.4-3.2,4.6-0.9,9l7.5,14.4l-6.8,3.6L328.8,417.9z"/>
		<path class="st1" d="M377.6,399.4l-0.6-0.7c-1.4-1.8-4.1-2-6.6,0c-2.9,2.2-3.1,5.2-0.7,7.8l-5.9,3.9c-4.9-5.6-2.9-12.4,2.5-16.7
			c6.4-5,12.5-4.5,16.6,0.7l12.4,15.8l-5.6,4.4l-2-2.5c0.4,2.6-0.6,5.7-3.5,8c-5.2,4.1-10.8,2.7-13.5-0.7c-3.7-4.6-2.6-9.5,2.6-15.2
			L377.6,399.4z M381.9,404.9l-0.7-0.9l-3.6,4c-2.2,2.4-3.2,4.4-1.8,6.1c1.2,1.5,3.3,1.4,5.3-0.3C384,411.6,384.3,408,381.9,404.9z"
			/>
		<path class="st1" d="M385.1,378.9l5-5.8l2.1,1.8c-0.5-3.3,0.4-6.4,2.8-9.1c4.3-5,10.2-4.9,15.7-0.3l14.5,12.4l-5,5.8l-13.5-11.5
			c-3.2-2.7-5.9-2.8-8.2-0.1c-2.4,2.8-1.8,6.6,1.8,9.8l12.3,10.6l-5,5.8L385.1,378.9z"/>
		<path class="st1" d="M422.1,331.7l-14.2-7.7l3.7-6.8l37.8,20.5l-3.7,6.8L443,343c1.2,3.3,0.9,6.7-1,10.2c-3.8,7-12.7,8.8-20.5,4.6
			c-7.7-4.2-11.2-12.8-7.4-19.8C416,334.6,418.6,332.5,422.1,331.7z M432.6,337.4c-4.3-2.3-9.1-1.2-11.2,2.7
			c-2.2,4.1-0.5,8.6,3.8,10.9c4.3,2.3,9,1.3,11.2-2.8C438.5,344.3,436.9,339.7,432.6,337.4z"/>
		<path class="st1" d="M426.1,282.5c2.6,0.6,4.2,3.2,3.6,5.7c-0.6,2.6-3.1,4.1-5.7,3.6c-2.6-0.6-4.2-3.2-3.6-5.7
			C420.9,283.5,423.5,281.9,426.1,282.5z M433,292.8l1.7-7.5l29.2,6.6l-1.7,7.5L433,292.8z"/>
		<path class="st1" d="M441.5,252.7l-16.1-1l0.5-7.7l43,2.7l-0.5,7.7l-3.1-0.2c2.5,2.5,3.7,5.7,3.4,9.6c-0.5,7.9-7.8,13.4-16.7,12.8
			c-8.8-0.5-15.5-6.9-15-14.8C437.2,257.9,438.7,254.9,441.5,252.7z M453.4,253.5c-4.9-0.3-8.7,2.7-9,7.2c-0.3,4.6,3.1,8,8,8.3
			c4.9,0.3,8.7-2.6,9-7.3C461.7,257.2,458.3,253.8,453.4,253.5z"/>
		<path class="st1" d="M447.9,204.8l3.4-0.5l3.1,21c4.3-1.4,6.4-4.9,5.8-9c-0.5-3.5-3.1-5.9-6.4-6l0.3-7.1c3.3,0.1,6.1,1.2,8.5,3.5
			c2.4,2.3,3.8,5.2,4.3,8.7c1.3,8.9-4.5,16-13.4,17.3c-8.9,1.3-16.6-3.6-17.9-12.4C434.3,212.2,439.5,206,447.9,204.8z M446.4,211.9
			c-3.1,0.6-5,3.7-4.5,7.6c0.5,3.6,3,6,6.6,6.5L446.4,211.9z"/>
		<path class="st1" d="M431.8,196.5l-2.6-7.2l2.7-1c-3.1-1.2-5.3-3.5-6.6-6.9c-2.3-6.2,0.7-11.3,7.5-13.8l18-6.6l2.6,7.2l-16.6,6.1
			c-3.9,1.4-5.3,3.8-4.1,7.1c1.3,3.5,4.9,4.8,9.4,3.2l15.3-5.6l2.6,7.2L431.8,196.5z"/>
		<path class="st1" d="M419,163.7l-2.6-4.2l-7.4,4.5l-4-6.6l7.4-4.5l-7.4-12.1l5.7-3.4l7.4,12.1l11-6.7c2.4-1.4,2.9-3.6,1.5-5.8
			c-1.4-2.3-4-2.6-7-0.4l-3.2-6.6c6-4.1,12.6-2.4,16,3.2c4,6.5,2.5,12.7-3.6,16.4l-10.8,6.5l2.6,4.2L419,163.7z"/>
		<path class="st1" d="M385.9,131.5c2-1.7,5.1-1.4,6.8,0.6c1.7,2,1.4,5-0.7,6.7c-2,1.7-5.1,1.4-6.7-0.6
			C383.5,136.2,383.8,133.2,385.9,131.5z M398.3,132.3l-4.9-5.9l23-19.1l4.9,5.9L398.3,132.3z"/>
		<path class="st1" d="M387.9,119.6l-3.6-3.3l-5.8,6.4l-5.7-5.2l5.8-6.4l-10.5-9.5l4.5-4.9l10.5,9.5l8.7-9.6c1.9-2,1.7-4.3-0.2-6
			c-2-1.8-4.6-1.3-6.8,1.6l-4.9-5.5c4.6-5.6,11.4-5.9,16.2-1.5c5.7,5.1,6,11.4,1.2,16.7l-8.5,9.3l3.6,3.3L387.9,119.6z"/>
		<path class="st1" d="M347,98.2c1.5-2.2,4.5-2.8,6.7-1.3c2.2,1.5,2.7,4.4,1.3,6.6c-1.5,2.2-4.5,2.8-6.6,1.3
			C346.1,103.3,345.5,100.4,347,98.2z M359.1,95.4l-6.4-4.3l16.7-24.8l6.4,4.3L359.1,95.4z"/>
		<path class="st1" d="M324.5,61.1L326,58l19.2,9c1.2-4.3-0.5-8-4.3-9.8c-3.2-1.5-6.7-0.7-8.6,2l-5.8-4.1c1.9-2.7,4.4-4.5,7.7-5.2
			c3.3-0.7,6.5-0.3,9.7,1.2c8.2,3.8,10.9,12.6,7,20.8c-3.8,8.2-12.2,11.9-20.2,8.1C323.2,76.5,320.9,68.8,324.5,61.1z M329.6,66.2
			c-1.2,2.9,0.3,6.3,3.8,7.9c3.3,1.5,6.6,0.8,9-1.9L329.6,66.2z"/>
		<path class="st1" d="M307.8,51.1c0.2-3.6-1.6-6.2-5-7c-3.1-0.8-5.1,0-5.5,1.6c-0.4,1.4,0.7,2.8,4.7,4.3c6.8,2.4,9.8,6.8,8.4,12.2
			c-1.3,5.1-7,7.6-13.1,6.1c-5.3-1.3-8.9-5.8-9.1-11.4l6.8-0.4c0.1,2.6,1.5,4.3,4,4.9c2.1,0.5,3.8,0.2,4.1-1.1
			c0.3-1.3-0.4-2.3-3.7-3.4c-7.7-2.7-10.9-7-9.5-12.7c1.5-5.9,7.6-8.7,14.5-7c6.7,1.7,10.8,7.3,10.5,14.2L307.8,51.1z"/>
	</g>
</g>
</svg>
