<?xml version="1.0" encoding="utf-8"?>
<!-- Generator: Adobe Illustrator 25.2.1, SVG Export Plug-In . SVG Version: 6.00 Build 0)  -->
<svg version="1.1" id="Layer_1" xmlns="http://www.w3.org/2000/svg" xmlns:xlink="http://www.w3.org/1999/xlink" x="0px" y="0px"
	 viewBox="0 0 500 500" style="enable-background:new 0 0 500 500;" xml:space="preserve">
<path d="M340.9,275.4c-7.4-6.9-16-7.2-18.1-7.2c0,0,0,0-0.1,0c-2.1-0.1-4.1,0.1-6.1,0.6c-1.7,0.3-3.5,0.9-5,1.8
	c-2.1,1-4.1,2.4-5.9,4.1c-4.5,4.4-7,10.3-7,16.7c0,13.2,10.7,24.3,23.9,24.8c0.3,0,0.5,0,0.8,0c-0.5,1-1.1,1.9-1.7,2.7
	c-4.6,5.7-13.2,8.6-24.4,8.2c-15.2-0.5-27.3-14.4-42.7-32c-0.2-0.3-0.5-0.5-0.7-0.8c4.5-12.2,8.5-26.3,11.7-41.8
	c17.4-2.1,34-7.3,47.1-14.7c19.3-11,29.4-26,29.4-43.4c0-15.1-5-26.8-14.8-34.8c-10.3-8.5-22.8-10.1-29.3-10.3
	c-12.5-0.4-24.6,4.9-35.1,15.4c-9.4,9.4-16.5,22.5-19.7,35.9c-1.9,7.9-3.7,16-5.4,23.7c-16.8-4.1-29.2-14.8-34.8-25.1
	c-4-7.3-4.5-14.9-4.1-20.4c4.4,4.8,10.5,7.9,17.4,8.1c0.3,0,0.6,0,0.9,0c6.1,0,11.8-2.3,16.1-6.5c4.5-4.4,7-10.3,7-16.7
	c0-13.1-10.6-24.1-23.6-24.8c-1.2-0.1-2.4-0.2-3.8-0.3c-9.1-0.3-18.2,3.2-24.9,9.7c-9,8.7-13.8,22.3-13.8,39.5
	c0,15.2,7.5,31.2,20.5,43.7c10.4,10,23.1,16.8,36.9,20c-1.4,5.7-2.9,11.4-4.4,17c-11.9-8.4-24-12.4-37.8-12.9
	c-15.1-0.5-30.3,5.1-40.6,15.1c-9,8.7-13.7,20-13.7,32.9c0,33.9,30.3,44.6,41.9,45.9c30.2,3.3,51.4-10.3,61.2-24.1
	c0.1-0.2,0.3-0.4,0.4-0.6c1,1.1,2,2.1,3,3.2c21.5,22.7,42.7,28.1,56.6,28.6c0.5,0,1.1,0,1.6,0c13.3,0,27-5.7,37-15.3
	c6.7-6.5,14.7-17.7,14.7-34.3C351.7,292.7,348.1,282.1,340.9,275.4z M185.9,321c-8.1,0-18.6-7.5-19.4-16.8
	c-0.4-4.2,1.2-8.6,4.2-11.8c4-4.2,10.4-6.4,18.6-6.4c0.6,0,1.1,0,1.7,0c11,0.4,18.2,5.1,25.4,12.8C208.6,314,198.9,321,185.9,321z
	 M271.1,223.9c7.1-33.1,18.9-40.2,25.6-41.4c0.9-0.2,1.8-0.2,2.7-0.2c3.1,0,6,1,8.1,2.7c2.5,2.1,3.9,5.4,3.9,9.5
	c0,4.9-2.3,9.6-6.7,13.9C298.3,214.5,285.4,220.8,271.1,223.9z"/>
</svg>
