<?xml version="1.0" encoding="utf-8"?>
<!-- Generator: Adobe Illustrator 25.0.1, SVG Export Plug-In . SVG Version: 6.00 Build 0)  -->
<svg version="1.1" id="Layer_1" xmlns="http://www.w3.org/2000/svg" xmlns:xlink="http://www.w3.org/1999/xlink" x="0px" y="0px"
	 viewBox="0 0 500 500" style="enable-background:new 0 0 500 500;" xml:space="preserve">
<style type="text/css">
	.st0{fill:#FFFFFF;}
	.st1{fill:none;stroke:#FFFFFF;stroke-width:6.7308;stroke-miterlimit:10;}
</style>
<g>
	<circle cx="250" cy="250" r="248.9"/>
</g>
<g>
	<path class="st0" d="M98.7,408.9c0.5-0.5,1.4-1.5,2.1-2.3c0.7-0.8,1.6-1.8,2.1-2.5c1.7,1.6,3.4,3.1,5,4.4
		c8.2-9.3,19.2-22,21.1-24.3c0.7,0.7,1.9,1.8,2.7,2.5c0.8,0.7,1.9,1.7,2.8,2.3c-2.1,2.1-13.2,14.8-21.4,24.1c1.5,1.4,3.3,2.9,5,4.4
		c-0.6,0.6-1.5,1.6-2.2,2.4c-0.7,0.8-1.5,1.7-2,2.4L98.7,408.9z"/>
	<path class="st0" d="M74,380.9c6.1-2.1,20.9-7.9,26.2-10.2c4.6-3.8,7.7-6.5,9.1-7.6c0.5,0.8,1.5,1.9,2.2,2.8c0.8,0.9,1.7,2,2.4,2.7
		c-1.4,1-4.6,3.6-9.2,7.4c-3.4,4.9-12.3,18.8-14.8,23.9l-5.2-6.3c1.4-1.9,5.8-7.4,9.1-11.6c1.2-1.6,2.4-3.2,3.4-4.4l-0.3-0.3
		c-1.3,0.8-3.1,1.7-4.8,2.5c-5,2.5-11.4,5.7-13.4,6.8L74,380.9z"/>
	<path class="st0" d="M60.5,359.7c-3.7-6.4-2.6-11.6,6.6-17c8.7-5.1,14.1-3.6,17.9,3c0.8,1.3,1.2,2.2,1.8,3.4
		c3.5-2.1,6.5-3.9,8.8-5.5l3.8,6.5c-4.9,2.6-9.6,5.4-16.7,9.5c-7.1,4.1-12.1,7.1-16.5,9.8L60.5,359.7z M70.5,348.8
		c-5.4,3.1-5.8,5.3-3.9,8.7c0.3,0.6,1,1.7,1.6,2.6c4.7-2.7,9.2-5.4,13.3-7.8c-0.3-0.6-0.8-1.4-1.3-2.3
		C77.9,346.3,76,345.6,70.5,348.8z"/>
	<path class="st0" d="M41.8,318.3c0.6-0.2,1.9-0.7,2.8-1c1-0.4,2.4-0.9,3.1-1.2c1.6,4.4,3.1,8.6,4.4,12l9.1-3.4
		c-1.6-4.2-3.1-8.2-4.6-11.6l5.7-2.1c1.3,3.5,2.8,7.6,4.3,11.7l9.5-3.6c-1.3-3.5-3-7.8-4.6-12c0.7-0.2,2.2-0.8,3.2-1.2
		c0.9-0.3,2.2-0.8,2.9-1.2l7,18.6c-4.7,1.6-10.4,3.8-18,6.7c-7.6,2.9-13.8,5.2-17.9,7L41.8,318.3z"/>
	<path class="st0" d="M50.9,288.4c1-0.2,2-0.4,3-0.6c1.1-0.2,2.1-0.5,3.1-0.8c0.2,1.5,1,4.7,1.5,6.9c0.5,2,1.2,5.3,1.6,6.7
		c-1.1,0.2-2,0.4-3.1,0.7c-1,0.2-2,0.5-3,0.7c-0.2-1.5-1-4.8-1.4-6.8C52.1,293,51.4,289.8,50.9,288.4z"/>
	<path class="st0" d="M31.9,267.7c-0.7-9.3,2.3-13.8,17.8-15c15-1.2,19.8,2.3,20.6,12.2l0.8,10.1c-5.3,0.3-11,0.7-19.1,1.3
		c-8.1,0.6-14.6,1.1-19.2,1.6L31.9,267.7z M50.4,259.7c-11.3,0.9-12.5,2.9-12.1,7.4c0.1,1.1,0.2,2.1,0.3,3.1
		c3.7-0.2,8.6-0.6,12.9-0.9c5.8-0.4,9.7-0.7,12.5-1c0-1,0-1.9-0.1-3C63.6,260.6,61.9,258.8,50.4,259.7z"/>
	<path class="st0" d="M55.9,224.8c0.9-3.4,2.5-4.5,7.5-5.3c3.2-0.5,6.6-0.8,8.4-1.2l-0.7,6.8c-0.1,1.2-0.6,1.2-3.7,1.6
		c-8.7,0.5-9.9,1-10.2,3.4c-0.1,1.5-0.2,2.2-0.4,4.1c5.4,0.5,10,0.8,13.2,1l-0.7,7.3c-5.6-0.6-11-1.2-19.1-2
		c-8.1-0.8-13.6-1.3-19.1-1.8l1.2-12.1c0.7-6.6,4.3-10.2,12.7-9.4c6.9,0.7,10.1,2.8,10.7,7.5L55.9,224.8z M45.5,224.2
		c-5.9-0.6-7.1,0.9-7.4,4.3c-0.1,0.8-0.2,2.6-0.3,4c4.6,0.5,9.1,0.9,13.4,1.3c0.1-0.9,0.3-2.6,0.5-4.6
		C52.1,226.4,50.1,224.7,45.5,224.2z"/>
	<path class="st0" d="M73.8,210.4c-4.9-1.3-10.7-2.7-18.7-4.7c-8-1.9-13.8-3.3-18.7-4.4l1.7-7.1c4.8,1.3,10.6,2.7,18.6,4.6
		c7.9,1.9,13.8,3.3,18.8,4.4L73.8,210.4z"/>
	<path class="st0" d="M50.6,158.2c8.1,5.3,28.3,17.6,33.2,20.7c-0.5,1.2-1.3,3-2,4.9c-1,2.6-1.5,4.1-1.8,5.1
		c-5.7-1.1-30.1-6-38.5-7.1l2.9-7.5c4,1.1,16,3.9,24.9,5.9c2.9,0.6,5.4,1.1,7.3,1.6l0.1-0.3c-1.8-1-4-2.2-6.5-3.7
		c-7.9-4.5-19-10.8-22.4-12.5L50.6,158.2z"/>
	<path class="st0" d="M66.9,128.7c0.5,0.4,1.7,1.1,2.5,1.6c0.9,0.5,2.3,1.3,2.9,1.7c-2.4,4-4.7,7.8-6.6,11l8.4,5
		c2.3-3.8,4.4-7.5,6.2-10.8l5.2,3.1c-1.9,3.2-4.2,6.9-6.4,10.7l8.7,5.2c1.9-3.2,4.2-7.2,6.5-11.1c0.6,0.4,2,1.2,2.9,1.8
		c0.8,0.5,2,1.2,2.7,1.5l-10.1,17.1c-4.2-2.6-9.4-5.7-16.5-9.9c-7-4.1-12.7-7.5-16.6-9.6L66.9,128.7z"/>
	<path class="st0" d="M91.1,97.9c2.7,2.3,8.3,7.2,14.6,12.5c6.5,5.5,11,9.3,14.7,12.4l-4.8,5.7c-3.8-1.5-12.9-4.7-20.7-7.2
		c-3.4-1.4-6.7-3-9.9-4.8c3.5,2.6,6.5,5,9.1,7.1c7.7,6.5,12.8,10.8,15,12.5l-4.1,4.8c-3.8-3.3-8.3-7.2-14.6-12.5
		c-6.2-5.3-11.1-9.4-14.7-12.3l5.5-6.5c2.8,1.2,12.2,4.3,20.3,7.2c2.7,1,5.5,2.4,8.3,3.9l0,0c-3-2.2-5.9-4.2-8.6-6.6
		c-4.6-3.9-11.2-9.2-14.1-11.5L91.1,97.9z"/>
</g>
<g>
	<path class="st0" d="M348.8,415.3c0.9-0.4,1.7-0.6,2.4-0.7c3-0.2,5.2,1.6,7.4,5.5c3.5,6.4,2.2,10.5-3.9,13.9l-11.7,6.4
		c-2.3-4.7-5.1-9.8-9-17c-3.9-7.2-6.8-12.5-9.4-16.8l11.4-6.2c5.9-3.2,10-2.6,13.7,4.3c2,3.7,2.3,6.1,1.1,8.3
		c-0.4,0.7-1.2,1.4-2.2,2.1L348.8,415.3z M352,422.4c-2-3.6-3.9-4.2-6.8-2.6c-1.2,0.7-2.5,1.4-4,2.3c1.7,3.1,3.7,6.7,5.3,9.6
		c1.7-0.8,3-1.5,4.1-2.1C353.6,427.8,354.2,426.4,352,422.4z M337.6,406c-1.3,0.7-2.5,1.4-4,2.3c1.5,2.7,3.4,6.2,5.1,9.4
		c1.5-0.7,2.8-1.5,4-2.1c2.8-1.6,3.1-3.7,1.2-7.2C341.9,404.6,340.5,404.4,337.6,406z"/>
	<path class="st0" d="M378.8,399c3.1-1.8,5-1.4,9,1.7c2.6,2,5.2,4.1,6.7,5.1l-5.3,4.3c-0.9,0.7-1.3,0.4-3.7-1.5
		c-6.5-5.8-7.7-6.4-9.5-4.9c-1.2,0.9-1.8,1.4-3.2,2.6c3.5,4.2,6.4,7.7,8.6,10.1l-5.7,4.6c-3.5-4.4-6.8-8.6-12-15
		c-5.1-6.3-8.6-10.6-12.2-14.9l9.5-7.7c5.2-4.2,10.3-4.1,15.6,2.4c4.3,5.4,5.1,9.2,2.2,12.9L378.8,399z M371.9,391.1
		c-3.7-4.6-5.6-4.4-8.3-2.2c-0.6,0.5-2,1.7-3,2.6c2.9,3.6,5.8,7.1,8.5,10.5c0.7-0.6,2.1-1.6,3.7-2.9
		C375,397.3,374.8,394.7,371.9,391.1z"/>
	<path class="st0" d="M416.4,382c-1.2-0.8-4.2-2.7-7.8-4.9c-1.1,1.3-2.3,2.7-3.1,3.7c-0.8,0.9-1.9,2.3-3.1,3.6
		c2.6,3.2,4.8,5.8,6,7.1l-4.8,5.6c-5.7-7.9-21-27.3-24-31.2l7.2-8.4c4.4,2.3,25.8,14.2,34.8,18.5L416.4,382z M386.1,364.4
		c1.2,1.4,2.8,3.5,4.8,6c2.4,2.9,5.3,6.5,8,9.8c0.9-1,1.8-2.1,2.5-2.9c0.7-0.8,1.6-1.9,2.5-3c-3.7-2.2-7.7-4.5-11-6.4
		c-2.7-1.5-5-2.8-6.6-3.7L386.1,364.4z"/>
	<path class="st0" d="M407.7,325.1c3.1,1.8,9.5,5.6,16.6,9.6c7.4,4.3,12.5,7.2,16.7,9.6l-3.7,6.5c-4-0.8-13.6-2.3-21.6-3.3
		c-3.6-0.7-7.2-1.7-10.6-3c3.9,1.9,7.3,3.7,10.3,5.4c8.7,5,14.6,8.3,17,9.6l-3.1,5.5c-4.3-2.5-9.5-5.6-16.6-9.7
		c-7.1-4.1-12.6-7.2-16.7-9.5l4.3-7.4c2.9,0.7,12.7,2,21.3,3.5c2.8,0.5,5.9,1.4,8.9,2.4l0,0c-3.4-1.6-6.6-3.1-9.7-4.9
		c-5.2-3-12.6-7-16-8.8L407.7,325.1z"/>
	<path class="st0" d="M414.5,307.8c3.1-8.8,7.7-11.7,22.3-6.6c14.2,5,17.2,10.1,13.9,19.5l-3.3,9.5c-4.9-1.9-10.4-3.8-18-6.5
		c-7.7-2.7-13.8-4.8-18.2-6.2L414.5,307.8z M434.6,307.9c-10.7-3.8-12.6-2.4-14.1,1.9c-0.4,1.1-0.7,2.1-0.9,3
		c3.5,1.3,8.1,3,12.2,4.4c5.5,1.9,9.2,3.2,11.9,4.1c0.4-0.9,0.7-1.8,1.1-2.8C446.4,313.9,445.5,311.7,434.6,307.9z"/>
	<path class="st0" d="M461.3,276.6c-5-0.7-11-1.4-19.1-2.3c-8.2-0.9-14.1-1.6-19.1-2l0.8-7.2c5,0.7,10.9,1.4,19,2.3
		c8.1,0.9,14.1,1.5,19.2,2L461.3,276.6z"/>
	<path class="st0" d="M424.5,246c-0.3-9.3,3-13.7,18.5-14.1c15.1-0.4,19.7,3.3,20,13.2l0.3,10.1c-5.3,0-11,0.2-19.2,0.4
		c-8.2,0.2-14.6,0.4-19.3,0.7L424.5,246z M443.3,238.9c-11.3,0.3-12.6,2.3-12.5,6.8c0,1.1,0.1,2.2,0.2,3.1c3.7,0,8.6-0.1,13-0.3
		c5.8-0.2,9.7-0.3,12.6-0.4c0.1-1,0-1.9,0-3C456.4,240.4,454.9,238.6,443.3,238.9z"/>
	<path class="st0" d="M419.1,205.4c0.7-0.1,2-0.3,2.9-0.5c1-0.2,2.6-0.5,3.3-0.7c0.9,4.6,1.7,9,2.4,12.6l9.6-1.9
		c-0.9-4.4-1.7-8.5-2.6-12.2l5.9-1.2c0.7,3.6,1.5,7.9,2.3,12.2l10-2c-0.7-3.6-1.6-8.2-2.6-12.6c0.8-0.1,2.3-0.4,3.4-0.6
		c0.9-0.2,2.3-0.5,3.1-0.7l3.9,19.5c-4.9,0.8-10.8,2-18.9,3.6c-8,1.6-14.4,2.9-18.8,3.9L419.1,205.4z"/>
	<path class="st0" d="M408.4,175.8c3.3-1.3,10.3-3.9,17.9-6.9c8-3.1,13.4-5.2,17.9-7.1l2.7,7c-3.1,2.6-10.3,9.1-16.1,14.8
		c-2.8,2.4-5.8,4.5-8.9,6.4c4-1.8,7.5-3.4,10.6-4.6c9.3-3.7,15.6-6.1,18.1-7.2l2.3,5.9c-4.7,1.8-10.3,3.9-18,6.9
		c-7.6,3-13.5,5.3-17.9,7.1l-3.1-8c2.4-1.9,9.5-8.7,16-14.4c2.1-1.9,4.8-3.7,7.4-5.4l0,0c-3.3,1.6-6.5,3.2-9.9,4.5
		c-5.6,2.2-13.4,5.4-16.8,7L408.4,175.8z"/>
	<path class="st0" d="M395,152.5c0.7-0.4,1.7-1,2.7-1.6c0.9-0.5,2-1.2,2.7-1.7c1.1,2,2.3,4,3.4,5.7c10.6-6.3,25-15,27.5-16.7
		c0.4,0.9,1.2,2.3,1.8,3.2c0.6,0.9,1.3,2.2,1.9,3c-2.6,1.4-17.1,10.1-27.7,16.4c1.1,1.8,2.2,3.7,3.5,5.7c-0.8,0.4-1.9,1.1-2.8,1.6
		c-1,0.6-2,1.2-2.7,1.6L395,152.5z"/>
	<path class="st0" d="M420.8,123c-4.1,3-8.8,6.7-15.3,11.7c-6.5,5-11.2,8.7-15.1,11.9l-4.5-5.7c4.1-3,8.8-6.6,15.2-11.7
		c6.4-5,11.2-8.7,15.1-12L420.8,123z"/>
	<path class="st0" d="M367.2,120.8c0.6-0.5,1.5-1.4,2.3-2.2c0.7-0.7,1.7-1.7,2.3-2.3c1.6,1.7,3.2,3.3,4.7,4.8
		c8.8-8.7,20.6-20.6,22.7-22.9c0.6,0.8,1.7,1.9,2.5,2.7c0.8,0.8,1.8,1.8,2.6,2.5c-2.2,2-14.2,13.9-22.9,22.6
		c1.4,1.5,3.1,3.1,4.7,4.7c-0.7,0.6-1.6,1.5-2.3,2.2c-0.8,0.8-1.6,1.6-2.2,2.2L367.2,120.8z"/>
	<path class="st0" d="M385.3,86c-3.3,3.9-7,8.6-12,15c-5.1,6.4-8.8,11.2-11.8,15.2l-5.7-4.5c3.2-3.9,6.9-8.5,12-15
		c5-6.4,8.8-11.1,11.8-15.2L385.3,86z"/>
	<path class="st0" d="M331.4,96.1c0.4-0.5,1.1-1.7,1.6-2.5c0.5-0.9,1.3-2.2,1.7-2.9c4,2.4,7.8,4.8,11,6.7l5-8.4
		c-3.8-2.3-7.5-4.5-10.8-6.3l3.1-5.2c3.1,1.9,6.9,4.2,10.6,6.5l5.2-8.7c-3.2-1.9-7.2-4.3-11-6.5c0.4-0.6,1.2-2,1.8-2.9
		c0.5-0.8,1.2-2,1.6-2.7l17.1,10.2c-2.7,4.1-5.8,9.4-10,16.4c-4.2,7-7.5,12.6-9.7,16.6L331.4,96.1z"/>
	<path class="st0" d="M328.8,65c1.6-4.1,1.1-5.7-2.2-7c-3.1-1.2-4.6-0.4-5.5,2.1c-1.1,2.7-0.8,5.5,2.7,8.8c6.1,5.6,6.9,10,4.7,15.6
		c-2.2,5.6-7,7.7-13.8,5c-7.5-2.9-9.1-7.2-6.7-13.5c0.4-0.9,0.8-1.8,1.3-2.9c0.7,0.3,1.7,0.7,2.9,1.2c1.1,0.4,2.3,0.9,3.1,1.1
		c-0.4,0.9-0.8,1.8-1.1,2.7c-1.1,2.8-0.7,4.5,2.6,5.8c2.9,1.1,4.4,0.3,5.3-1.9c1-2.4,1-4.8-2.8-8.4c-5.2-4.8-6.8-9.6-4.5-15.4
		c2.3-5.9,6.9-8.4,14-5.6c7.9,3.1,9.4,8,7,13.9c-0.5,1.3-0.8,2.1-1.3,2.9c-0.7-0.4-1.8-0.9-3-1.3c-1.3-0.5-2.5-0.9-3.5-1.3L328.8,65
		z"/>
</g>
<path class="st1" d="M166.1,427.8c37.7,18.2,79.7,23.6,119.9,16.7"/>
<path class="st1" d="M262.2,52.2c-41.8-2.1-84.1,9-119.9,32.9"/>
</svg>
