<?xml version="1.0" encoding="utf-8"?>
<!-- Generator: Adobe Illustrator 27.2.0, SVG Export Plug-In . SVG Version: 6.00 Build 0)  -->
<svg version="1.1" id="Layer_1" xmlns="http://www.w3.org/2000/svg" xmlns:xlink="http://www.w3.org/1999/xlink" x="0px" y="0px"
	 viewBox="0 0 500 500" style="enable-background:new 0 0 500 500;" xml:space="preserve">
<path d="M341.5,276.5c-7.2-7.3-16-8.2-18.5-8.3c0,0,0,0,0,0c-2.1-0.2-4.3-0.1-6.3,0.3c-1.9,0.3-3.8,0.8-5.5,1.7
	c-2.3,1-4.4,2.3-6.3,4c-5,4.4-7.8,10.5-8.1,17.2c-0.6,13.2,9.2,24.9,22.2,26.8c-0.1,0.1-0.2,0.3-0.3,0.4c-4.4,5.1-12.7,7.4-23.1,6.6
	c-14.3-1.1-25.5-15.1-39.7-32.9c0,0-0.1-0.1-0.1-0.1c4.8-11.4,9.1-24.6,12.8-39.1c17-1.5,33.5-5.8,46.5-12.5
	c19.9-10.2,30.9-25,31.7-42.8c0.3-7.9-0.8-15.2-3.3-21.4c-2.3-5.7-5.7-10.6-10.2-14.6c-10.1-9.1-22.7-11.3-29.3-11.8
	c-12.7-1-25.3,3.8-36.3,14c-9.8,9-17.6,21.8-21.4,35.1c-2.1,7.3-4,14.6-5.9,21.7c-15.2-4.8-26.1-15.2-30.9-25
	c-2.8-5.7-3.4-11.5-3.3-16.3c4.1,3.8,9.5,6.4,15.5,6.8c0.3,0,0.6,0,0.9,0.1c6.4,0.3,12.4-1.8,17.2-6c5-4.4,7.8-10.5,8.1-17.2
	c0.6-13.6-9.9-25.6-23.4-26.9c-1.2-0.2-2.5-0.3-3.8-0.4c-9.3-0.7-18.8,2.5-26,8.9c-6.7,5.9-14.8,17.5-15.8,39.3
	c-0.7,15.4,6.1,31.8,18.7,45c7,7.4,15.4,13.3,24.8,17.5c3.3,1.5,6.6,2.7,10,3.7c-1.3,4.4-2.6,8.8-4.1,13.2c-1.7-1.3-3.5-2.5-5.2-3.5
	c-9.4-5.8-19.4-9-30.5-9.9c-15.3-1.2-30.9,3.8-41.8,13.5c-9.5,8.4-14.8,19.8-15.4,32.9c-0.6,14.4,4.4,26.8,14.5,35.9
	c8.5,7.7,19,11.5,26,12.6c11.6,1.8,23.5,0.9,34.2-2.5c11.3-3.6,20.9-9.9,27.8-18.3c0.5,0.6,1.1,1.3,1.7,1.9
	c9.3,10.8,19.7,18.9,30.8,24.2c8.1,3.9,16.5,6.2,24.8,6.9c0.5,0,1.1,0.1,1.6,0.1c13.5,0.6,27.6-4.5,38.2-13.9
	c7.1-6.3,15.7-17.3,16.5-34.2C351.8,294.7,348.6,283.7,341.5,276.5z M185.8,314.3c-3.7-0.2-8-2.1-11.3-5.1
	c-3.5-3.2-5.5-7.1-5.7-10.9c-0.2-3.8,1.4-7.6,4.2-10.3c3.8-3.7,9.9-5.4,17.6-5.1c0.5,0,1.1,0.1,1.6,0.1c10,0.8,16.5,5.3,22.9,12.5
	c-2.2,3.8-4.6,7-7.1,9.6C201.7,311.6,194.5,314.6,185.8,314.3z M275.9,221.8c3-10.9,6.7-19.5,11-25.7c4.3-6.3,9.2-9.9,14.2-10.6
	c0.8-0.1,1.6-0.1,2.4-0.1c2.7,0.1,5.2,1.1,7,2.7c2.1,1.9,3.1,4.8,3,8.4c-0.2,4.4-2.5,8.6-6.7,12.3c-5.5,4.9-14.5,9.1-25.2,11.8
	C279.7,221,277.8,221.4,275.9,221.8z"/>
</svg>
