<?xml version="1.0" encoding="utf-8"?>
<!-- Generator: Adobe Illustrator 25.0.1, SVG Export Plug-In . SVG Version: 6.00 Build 0)  -->
<svg version="1.1" id="Layer_1" xmlns="http://www.w3.org/2000/svg" xmlns:xlink="http://www.w3.org/1999/xlink" x="0px" y="0px"
	 viewBox="0 0 500 500" style="enable-background:new 0 0 500 500;" xml:space="preserve">
<g>
	<path d="M350.8,293.8c0,7.9-4.1,23-11.6,32.9c-8.7,11.4-22.7,19.2-40,22c-2.3,0.4-4.5,0.5-6.8,0.5c-21.8,0-42.3-16.4-62.2-33.9
		c-4.9,7.5-11.3,14.7-20.2,19.9c-17.1,9.9-38.6,8.6-54.8-3.2c-15.1-11-21.9-29.1-17.9-47.2c3.1-13.8,11.4-25.3,23.6-32.2
		c13.8-7.9,31.1-9.1,48.6-3.4c1.9,0.6,3.7,1.3,5.5,2.2c1.1-2.5,2.2-5,3.3-7.6c-0.5-0.3-1-0.6-1.4-0.9c-15.7-9.7-25.4-23.8-27.3-39.9
		c-2.6-22,6.5-43.1,14.5-56.9l35.8,20.9c-6.8,11.6-10.1,23-9.2,31.2c0.3,2.4,1.8,4.8,4.4,7c3.6-7.9,7.2-15.2,10.6-21.2
		c13.1-23.3,39.7-34.6,63.3-26.7c18.7,6.2,28.9,27.9,28.9,45c0,16.4-10.6,39.3-40.3,50.2c-11.4,4.2-25.5,5.3-39.6,3.8
		c-3.1,7.3-6.1,14.2-9,20.5c0.8,0.7,1.6,1.4,2.4,2.1c9.1,8.1,18.6,16.6,27.2,22.4c10.2,6.9,20.5,4.7,24.3,2.3
		c3.8-2.4,7.4-6.9,7.9-14L350.8,293.8z M186.7,289.9c-4.7,0-10.3,3.4-10.3,6.7c0,3.3,2.7,6.7,8.1,6.7c9.1,0,12-11.5,12-11.5
		S191.4,289.9,186.7,289.9z M294.5,190.9c-5.7,0.7-8.2,5.3-10.9,10.2c-2,3.5-4.1,7.6-6.3,12.2c3-0.3,5.8-0.9,8-1.7
		c8.4-3.1,13.7-8.2,14.7-12.6C300.9,194.5,299.8,190.3,294.5,190.9z"/>
</g>
</svg>
