<?xml version="1.0" encoding="utf-8"?>
<!-- Generator: Adobe Illustrator 25.0.1, SVG Export Plug-In . SVG Version: 6.00 Build 0)  -->
<svg version="1.1" id="Layer_1" xmlns="http://www.w3.org/2000/svg" xmlns:xlink="http://www.w3.org/1999/xlink" x="0px" y="0px"
	 viewBox="0 0 500 500" style="enable-background:new 0 0 500 500;" xml:space="preserve">
<style type="text/css">
	.st0{fill:none;}
	.st1{fill:none;stroke:#000000;stroke-width:6.7308;stroke-miterlimit:10;}
</style>
<g>
	<g>
		<circle class="st0" cx="250" cy="250" r="248.9"/>
	</g>
	<g>
		<path d="M36.6,254.8c0.8,0,2-0.1,3.2-0.2c1-0.1,2.4-0.2,3.3-0.3c0.1,2.4,0.3,4.7,0.4,6.8c12.6-0.8,29.7-2,32.8-2.3
			c0,1,0.1,2.6,0.1,3.7c0.1,1.1,0.2,2.6,0.3,3.6c-3,0-20.2,1.1-32.8,1.9c0.1,2.1,0.3,4.4,0.5,6.8c-0.9,0-2.2,0.1-3.3,0.2
			c-1.1,0.1-2.3,0.2-3.2,0.3L36.6,254.8z"/>
		<path d="M39.3,216.3c5.9,3,20.7,9.6,26.1,11.8c6,0.6,10.3,1,12,1.1c-0.2,1-0.4,2.4-0.5,3.6c-0.1,1.2-0.3,2.7-0.3,3.7
			c-1.8-0.3-5.9-0.8-12-1.4c-6,1.1-22.4,4.5-28,6.2l0.9-8.3c2.4-0.3,9.5-1,15-1.6c2-0.3,4-0.5,5.6-0.6l0-0.4c-1.5-0.4-3.4-1-5.2-1.8
			c-5.4-1.9-12.3-4.3-14.5-4.9L39.3,216.3z"/>
		<path d="M45.5,190.9c2.1-7.3,6.7-10.1,17.1-7.1c9.9,2.9,12.6,7.8,10.5,15.3c-0.4,1.5-0.7,2.4-1.2,3.7c4,1.1,7.5,2,10.2,2.6
			l-2.1,7.4c-5.4-1.7-10.7-3.3-18.8-5.6c-8-2.3-13.8-3.9-18.9-5.2L45.5,190.9z M60.5,190.5c-6.1-1.8-8.1-0.5-9.2,3.2
			c-0.2,0.7-0.6,2-0.8,3c5.3,1.5,10.5,3,15.1,4.3c0.2-0.6,0.5-1.5,0.8-2.6C67.6,194.2,66.7,192.3,60.5,190.5z"/>
		<path d="M63.3,147.4c0.6,0.3,1.8,0.9,2.7,1.4c0.9,0.5,2.4,1.2,3.1,1.5c-2.1,4.3-4.2,8.3-5.8,11.7l8.9,4.4c2-4.1,3.9-8,5.4-11.5
			l5.5,2.7c-1.7,3.4-3.7,7.3-5.7,11.4l9.3,4.6c1.7-3.4,3.7-7.7,5.7-11.8c0.7,0.4,2.1,1.1,3.1,1.6c0.8,0.4,2.2,1.1,2.9,1.4l-8.9,18.2
			c-4.4-2.3-10-5.1-17.6-8.8c-7.5-3.7-13.5-6.6-17.7-8.5L63.3,147.4z"/>
		<path d="M92.3,133.1c0.8,0.6,1.7,1.2,2.6,1.8c0.9,0.7,1.8,1.2,2.7,1.8c-1,1.2-2.9,4-4.2,5.8c-1.2,1.7-3.1,4.6-3.9,5.9
			c-0.9-0.7-1.7-1.2-2.6-1.9c-0.9-0.6-1.7-1.2-2.6-1.7c0.9-1.2,2.9-4,4.1-5.8C89.6,137.2,91.5,134.4,92.3,133.1z"/>
		<path d="M95,104.2c6.6-6.9,12-7.7,23.5,3.2c11.2,10.6,11.8,16.6,4.8,23.9l-7.1,7.5c-3.8-3.8-8.1-7.9-14.1-13.6
			c-6-5.7-10.8-10.3-14.4-13.4L95,104.2z M113.7,112.7c-8.4-8-10.7-7.5-13.9-4.1c-0.8,0.8-1.5,1.6-2.1,2.4c2.7,2.7,6.3,6.1,9.5,9.2
			c4.3,4.1,7.2,6.8,9.3,8.8c0.8-0.7,1.4-1.3,2.2-2.2C122.1,123.3,122.3,120.9,113.7,112.7z"/>
		<path d="M144.4,93c3.2-1.6,5.1-1.2,9.1,2.2c2.5,2.1,5.1,4.5,6.5,5.6l-5.7,4.1c-1,0.7-1.3,0.3-3.7-1.7c-6.3-6.3-7.5-6.9-9.4-5.5
			c-1.2,0.9-1.9,1.3-3.4,2.5c3.3,4.5,6.1,8.2,8.2,10.7l-6.1,4.4c-3.3-4.7-6.5-9.2-11.4-16c-4.9-6.8-8.2-11.3-11.5-15.9l10.1-7.3
			c5.5-4,10.7-3.7,15.8,3.4c4.1,5.7,4.7,9.6,1.5,13.2L144.4,93z M137.8,84.7c-3.5-4.9-5.5-4.8-8.3-2.7c-0.6,0.5-2.1,1.6-3.3,2.5
			c2.8,3.8,5.5,7.6,8.1,11.1c0.8-0.5,2.2-1.5,3.9-2.7C140.6,91.1,140.5,88.5,137.8,84.7z"/>
		<path d="M167.7,97c-2.2-4.7-5.1-10.1-8.9-17.5c-3.8-7.4-6.7-12.9-9.1-17.4l6.6-3.4c2.2,4.6,5,10,8.8,17.5
			c3.8,7.4,6.6,12.8,9.2,17.4L167.7,97z"/>
		<path d="M192.9,44.2c1.3,9.8,5.1,33.6,5.9,39.5c-1.3,0.4-3.1,1-5.2,1.7c-2.7,0.9-4.2,1.5-5.2,1.9c-2.9-5.1-15.2-27.3-19.9-34.6
			l7.8-2.7c1.8,3.9,7.6,15,11.9,23.3c1.5,2.6,2.7,4.9,3.6,6.7l0.3-0.1c-0.4-2-0.9-4.6-1.4-7.5c-1.7-9.2-4.2-21.9-5.1-25.7
			L192.9,44.2z"/>
		<path d="M227.3,37.6c0.1,0.7,0.3,2,0.4,3c0.2,1,0.4,2.6,0.6,3.4c-4.7,0.7-9.2,1.4-12.9,2l1.6,9.8c4.5-0.7,8.8-1.4,12.5-2.2l1,6.1
			c-3.7,0.6-8.1,1.2-12.6,1.9l1.7,10.2c3.7-0.6,8.4-1.4,12.9-2.1c0.1,0.8,0.3,2.3,0.5,3.5c0.1,0.9,0.4,2.4,0.6,3.1l-20,3.3
			c-0.7-5-1.7-11.1-3-19.4c-1.3-8.2-2.4-14.8-3.3-19.3L227.3,37.6z"/>
		<path d="M267.8,36.8c-0.1,3.6-0.3,11.2-0.5,19.6c-0.2,8.7-0.3,14.6-0.3,19.7l-7.6-0.1c-1.2-3.9-4.6-13.3-7.7-21
			c-1.1-3.6-2-7.3-2.6-10.9c0.2,4.4,0.3,8.4,0.2,11.8c-0.1,10.3-0.3,17.1-0.2,19.9l-6.4-0.1c0.2-5.1,0.3-11.2,0.5-19.6
			c0.2-8.3,0.3-14.8,0.3-19.6l8.7,0.2c0.8,2.9,4.5,12.4,7.4,20.7c0.9,2.7,1.7,5.9,2.2,9.1h0.1c-0.2-3.8-0.4-7.4-0.4-11
			c0.1-6.2,0.1-14.8,0-18.6L267.8,36.8z"/>
	</g>
	<g>
		<path d="M190.8,437.4c0.9,0.4,1.6,0.9,2.2,1.4c2.2,2.2,2.3,5.1,0.8,9.4c-2.5,7-6.5,8.8-13.3,6.4l-12.7-4.6c2-5,4-10.6,6.8-18.4
			c2.8-7.8,4.9-13.6,6.4-18.5l12.5,4.5c6.5,2.3,8.7,5.9,6,13.3c-1.5,4-3.1,5.9-5.6,6.5c-0.8,0.1-1.9,0-3.1-0.2L190.8,437.4z
			 M187.6,444.5c1.4-3.9,0.6-5.8-2.7-7c-1.3-0.5-2.8-1-4.4-1.5c-1.2,3.4-2.6,7.3-3.7,10.5c1.7,0.7,3.2,1.2,4.4,1.7
			C184.5,449.4,186,448.9,187.6,444.5z M190.4,422.5c-1.4-0.5-2.8-1-4.5-1.5c-1.1,3-2.4,6.8-3.7,10.2c1.5,0.7,3,1.1,4.3,1.6
			c3.1,1.1,5-0.2,6.3-3.9C194.3,424.8,193.5,423.6,190.4,422.5z"/>
		<path d="M223.8,449.2c3.4,1.2,4.5,2.8,4.9,8c0.3,3.3,0.4,6.8,0.6,8.6l-6.9-1.2c-1.2-0.2-1.2-0.7-1.4-3.8c0-8.9-0.3-10.2-2.7-10.6
			c-1.5-0.2-2.3-0.4-4.2-0.6c-0.9,5.5-1.5,10.1-1.9,13.4l-7.4-1.2c1-5.6,1.9-11.1,3.3-19.3c1.4-8.2,2.2-13.8,3.1-19.4l12.3,2
			c6.7,1.1,10.1,5,8.7,13.5c-1.2,7-3.5,10.1-8.4,10.4L223.8,449.2z M225.1,438.6c1-6-0.5-7.2-3.9-7.8c-0.8-0.1-2.6-0.4-4-0.6
			c-0.8,4.6-1.5,9.2-2.2,13.6c0.9,0.2,2.7,0.5,4.7,0.8C222.5,445.1,224.3,443.2,225.1,438.6z"/>
		<path d="M262.5,466.3c-0.2-1.5-0.8-5-1.6-9.3c-1.8,0-3.6,0.1-4.9,0.1c-1.3,0-3,0.1-4.9,0.1c-0.6,4.1-1.1,7.6-1.3,9.3l-7.5,0.2
			c2.1-9.7,6.6-34.5,7.5-39.4l11.3-0.3c1.3,4.9,6.7,29.3,9.5,39L262.5,466.3z M255.2,431.3c-0.3,1.9-0.7,4.5-1.3,7.7
			c-0.6,3.8-1.3,8.4-2,12.7c1.4,0,2.8,0,3.9,0c1.1,0,2.5-0.1,3.9-0.1c-0.8-4.3-1.8-8.9-2.6-12.7c-0.7-3-1.2-5.7-1.6-7.6L255.2,431.3
			z"/>
		<path d="M300,421c0.7,3.5,2.2,11,3.9,19.2c1.8,8.6,3,14.3,4.1,19.2l-7.5,1.6c-2.1-3.6-7.5-11.9-12.2-18.7c-1.9-3.2-3.5-6.6-5-10.1
			c1.2,4.3,2.1,8.1,2.9,11.5c2.2,10,3.6,16.7,4.3,19.4l-6.3,1.3c-1-5-2.2-11-3.9-19.2c-1.7-8.1-3.1-14.5-4.2-19.2l8.6-1.8
			c1.5,2.7,7.1,11.1,11.8,18.5c1.5,2.5,3,5.4,4.2,8.4l0.1,0c-1.1-3.6-2.1-7.1-2.8-10.7c-1.3-6-3.2-14.4-4.2-18.1L300,421z"/>
		<path d="M318,414.3c8.8-3.6,14.1-2.1,20.2,12.5c5.9,14.2,4,20-5.3,23.8l-9.5,3.9c-1.9-5-4.2-10.5-7.3-18.1
			c-3.2-7.7-5.7-13.8-7.7-18.1L318,414.3z M331.6,429.7c-4.4-10.7-6.8-11.2-11-9.4c-1.1,0.4-2,0.9-2.9,1.3c1.3,3.5,3.3,8.2,5,12.3
			c2.3,5.5,3.8,9.2,4.9,11.8c1-0.3,1.8-0.6,2.9-1.1C334.9,442.8,336.1,440.6,331.6,429.7z"/>
		<path d="M373.5,428.8c-2.9-4.3-6.4-9.3-11.3-16.1c-4.9-6.8-8.4-11.8-11.5-15.9l6-4.3c2.9,4.3,6.4,9.2,11.2,16
			c4.8,6.8,8.4,11.8,11.6,15.9L373.5,428.8z"/>
		<path d="M371.9,379.8c6.9-6.5,12.4-7,23.3,4.4c10.6,11.2,10.9,17.2,3.6,24.1l-7.5,7.1c-3.6-4-7.6-8.3-13.3-14.3
			c-5.7-6-10.3-10.8-13.6-14.2L371.9,379.8z M390.1,389.3c-8-8.4-10.3-8-13.7-4.8c-0.8,0.8-1.6,1.6-2.2,2.3c2.5,2.8,6,6.4,9,9.7
			c4.1,4.3,6.8,7.2,8.9,9.3c0.8-0.6,1.5-1.3,2.3-2C397.9,400.2,398.2,397.8,390.1,389.3z"/>
		<path d="M399.1,347.9c0.5,0.5,1.6,1.3,2.4,1.9c0.8,0.6,2.1,1.6,2.8,2c-2.9,3.8-5.7,7.4-7.9,10.4l8,5.9c2.7-3.6,5.3-7.1,7.5-10.3
			l4.9,3.7c-2.3,3-5,6.5-7.7,10.1l8.3,6.2c2.3-3,5.1-6.8,7.8-10.5c0.6,0.5,1.9,1.4,2.8,2.1c0.8,0.6,1.9,1.4,2.6,1.9l-12.1,16.3
			c-3.9-3.1-8.9-6.9-15.6-11.9c-6.7-5-12-9-15.8-11.6L399.1,347.9z"/>
		<path d="M414.4,319.5c3.2,1.6,10,5.1,17.4,8.9c7.8,3.9,13.1,6.6,17.6,8.8L446,344c-4.1-0.6-14-1.6-22.2-2.2
			c-3.7-0.5-7.4-1.4-11-2.4c4.1,1.8,7.7,3.4,10.8,4.9c9.2,4.6,15.3,7.6,17.8,8.8l-2.9,5.7c-4.6-2.4-10-5.1-17.5-8.9
			c-7.4-3.7-13.2-6.7-17.6-8.7l3.9-7.8c3,0.5,13.1,1.3,21.8,2.3c2.9,0.3,6.1,1.1,9.2,1.9l0,0c-3.5-1.4-6.8-2.8-10.1-4.4
			c-5.5-2.8-13.3-6.4-16.8-8L414.4,319.5z"/>
		<path d="M422.9,293.2c0.7,0.3,1.9,0.6,3,1c1,0.3,2.3,0.7,3.2,0.9c-0.7,2.2-1.4,4.5-2,6.5c12.1,3.7,28.5,8.7,31.5,9.4
			c-0.4,0.9-0.9,2.5-1.2,3.5c-0.3,1.1-0.8,2.5-1,3.5c-2.9-1-19.3-6.1-31.4-9.8c-0.6,2-1.3,4.3-1.9,6.5c-0.8-0.3-2.1-0.7-3.1-1
			c-1.1-0.3-2.3-0.7-3.1-0.9L422.9,293.2z"/>
		<path d="M462.9,292.4c-5.1-1.1-11.1-2.1-19.3-3.6c-8.2-1.5-14.3-2.5-19.4-3.2l1.3-7.3c5,1,11,2.1,19.2,3.5
			c8.2,1.4,14.2,2.5,19.4,3.3L462.9,292.4z"/>
		<path d="M427.9,250.2c0.8,0.1,2,0.2,3.2,0.2c1,0.1,2.4,0.1,3.3,0.1c-0.2,2.3-0.3,4.7-0.4,6.8c12.6,0.7,29.7,1.5,32.8,1.5
			c-0.2,1-0.2,2.6-0.3,3.7c-0.1,1.1-0.1,2.6-0.1,3.7c-3-0.3-20.2-1.2-32.8-1.9c-0.1,2.1-0.2,4.4-0.3,6.8c-0.9-0.1-2.2-0.2-3.3-0.2
			c-1.2-0.1-2.4-0.1-3.2-0.1L427.9,250.2z"/>
		<path d="M466.6,239.7c-5.2,0.2-11.3,0.6-19.6,1.2c-8.4,0.6-14.5,1-19.6,1.5l-0.5-7.4c5.1-0.2,11.2-0.6,19.5-1.2
			c8.3-0.6,14.4-1,19.6-1.5L466.6,239.7z"/>
		<path d="M422,205.7c0.7-0.1,2-0.4,3-0.6c1-0.2,2.6-0.5,3.4-0.7c0.9,4.7,1.7,9.1,2.5,12.8l9.7-2c-0.9-4.5-1.8-8.7-2.7-12.4l6.1-1.2
			c0.7,3.7,1.5,8.1,2.4,12.5l10.2-2.1c-0.7-3.7-1.7-8.4-2.7-12.8c0.8-0.1,2.3-0.4,3.4-0.6c0.9-0.2,2.4-0.5,3.1-0.7l4,19.9
			c-5,0.8-11.1,2.1-19.3,3.7c-8.2,1.7-14.7,3-19.2,4.1L422,205.7z"/>
		<path d="M443.6,182.2c4.2-1.6,5-3.1,3.7-6.5c-1.2-3.2-2.8-3.7-5.4-2.8c-2.8,1.1-4.7,3.2-4.7,8.1c-0.1,8.4-2.8,12.1-8.5,14.3
			c-5.7,2.2-10.6,0-13.3-7c-2.9-7.7-0.8-11.8,5.6-14.3c0.9-0.4,1.9-0.7,3.1-1.1c0.2,0.8,0.6,1.8,1.1,3c0.4,1.1,0.9,2.3,1.2,3.1
			c-0.9,0.3-1.9,0.7-2.8,1c-2.9,1.1-3.8,2.6-2.5,6c1.1,2.9,2.8,3.5,5.1,2.6c2.5-1,4.3-2.5,4.4-7.9c0.1-7.3,2.5-11.7,8.5-14
			c6.1-2.3,11-0.6,13.8,6.7c3.1,8.1,0.4,12.5-5.7,14.9c-1.3,0.5-2.1,0.8-3.1,1.1c-0.2-0.8-0.6-1.9-1-3.1c-0.5-1.4-1-2.6-1.4-3.5
			L443.6,182.2z"/>
	</g>
	<g>
		<path class="st1" d="M63.3,311.9c13.2,40.9,39.3,76.1,73.6,100.5"/>
		<path class="st1" d="M412.3,136C387.9,102,353,76.1,312.4,63"/>
	</g>
</g>
</svg>
