<?xml version="1.0" encoding="UTF-8"?>
<svg id="Layer_1" xmlns="http://www.w3.org/2000/svg" version="1.1" viewBox="0 0 826 847.5">
  <!-- Generator: Adobe Illustrator 29.3.0, SVG Export Plug-In . SVG Version: 2.1.0 Build 146)  -->
  <defs>
    <style>
      .st0 {
        fill: #132d20;
      }
    </style>
  </defs>
  <path class="st0" d="M515.5,49.4c-.7-.2-1.4-.5-2.1-.6-.6-.2-1.2-.3-1.8-.4-31.4-8.2-64.3-12.6-98.2-12.6-214.2,0-388.5,174.3-388.5,388.5s121.6,329.9,286.4,374.9c.7.2,1.3.4,2,.6.6.2,1.3.3,1.9.4,31.4,8.2,64.3,12.6,98.2,12.6,214.2,0,388.5-174.3,388.5-388.5S680.3,94.4,515.5,49.4ZM82.3,424.3c0-127,71.9-237.5,177.1-293,8.4-4.4,17.7,4.5,13.7,13.1-2.2,4.7-4.3,9.6-6.1,14.7-19.6,53.5-13.4,107,18.1,154.7,22.6,34.3,57.5,63.3,96.2,82,3.8,1.8,6,6,5.5,10.2l-1.8,14.7v1.4h0c-.7,5.5-5.7,9.3-11.2,8.7-3.6-.4-7.2-.7-10.8-.9-44.3-2.4-105.7,11.2-143,46.8-22.9,21.8-34.9,50-34.7,81.5.2,36,14.9,58,27.2,70.1,28.4,28,67.4,28.5,71.7,28.5,89.3,0,130.4-75,144.6-133.3,1.6-6.7,9.4-9.8,15.2-6,19.3,12.6,37.1,29,50.1,48.6,21.3,32.3,25.4,67.1,12.1,103.4-13.6,37.1-40.6,61.8-80.2,73.2-34.7,10-72,7.7-96.2,2-142.1-37.2-247.3-166.7-247.3-320.3h-.2ZM366,487.8c5.8.6,9.8,6,8.8,11.8-5.7,30.3-25.7,99.8-90.9,99.8,0,0-12.3-.2-23.4-6.2-7.7-4.1-17.9-12.3-18-35.3,0-15.7,5.4-28.7,16.9-39.6,16.8-16.1,53.2-31.3,92.4-31.3s5.3,0,7.9.2c2.1,0,4.2.3,6.3.5h0ZM567.2,717.4c-8.4,4.4-17.7-4.5-13.6-13.1,2.3-4.9,4.4-9.9,6.3-15.2,19.6-53.5,13.4-107.1-18.1-154.7-22.6-34.3-57.5-63.3-96.2-82-3.8-1.8-6-6-5.5-10.2l1.8-14.7v-1.4h0c.7-5.5,5.7-9.3,11.2-8.7,3.6.4,7.2.7,10.8.9,44.2,2.4,105.7-11.2,143-46.8,22.9-21.8,34.9-50,34.7-81.5-.2-36-14.9-58-27.2-70.1-28.4-28-67.4-28.5-71.7-28.5-89.3,0-130.5,75-144.6,133.3-1.6,6.7-9.4,9.8-15.2,6-19.3-12.6-37.1-29-50.1-48.6-21.3-32.3-25.4-67.1-12.1-103.4,13.6-37.1,40.6-61.7,80.1-73,34.7-9.9,71.9-7.6,96.2-1.9,142.1,37.2,247.3,166.7,247.3,320.3s-72,237.6-177.3,293.1v.2h.2ZM460.7,360.4c-5.8-.6-9.8-6-8.8-11.8,5.7-30.3,25.7-99.8,90.9-99.8,0,0,12.3.2,23.4,6.2,7.7,4.1,17.9,12.3,18,35.3,0,15.7-5.4,28.7-16.9,39.6-18,17.1-58.2,33.3-100.3,31.1-2.1,0-4.2-.3-6.3-.5h0Z"/>
</svg>