<?xml version="1.0" encoding="UTF-8"?>
<svg id="Layer_1" xmlns="http://www.w3.org/2000/svg" version="1.1" viewBox="0 0 826 847.5">
  <!-- Generator: Adobe Illustrator 29.3.0, SVG Export Plug-In . SVG Version: 2.1.0 Build 146)  -->
  <defs>
    <style>
      .st0 {
        fill: #132d20;
      }
    </style>
  </defs>
  <g id="u2uBIJ">
    <path class="st0" d="M141.2,700.4c-44.4-44.5-76.6-100.3-99.1-159.1-4.6-12.1-5.3-24.9-7.7-37.2-1.8-9-5-18.3-6.1-27.3-.6-4.6-.2-10.1-.9-14.8-1-8-4.2-15.9-3.5-24.3,2.1-25.2,2.2-49.3,6-74.5,2.7-17.8,7-35.5,12.1-52.7,2.7-9.1,8.8-18.5,11.3-27.2,5.9-20.9,7.8-31.6,19.8-50.7,19.1-30.1,43.7-60.5,69.7-84.9,6.6-6.2,13.7-13,21-18.2,8.8-6.3,14.7-11.7,22.7-19,16.1-14.6,41.5-25.2,61.2-34.6,20.5-9.7,36.6-17.1,58.9-23,56.9-15.3,109.5-14.1,168-11.2,34,1.7,65.1,12.9,95.9,25.1,28.3,11.2,61.1,36,85.7,54.6,34.1,25.8,60,60.1,83.2,95.7s22,40.9,32.2,62.6c19.7,41.9,25,85.2,29.4,130.9,3.4,35.4-5.1,72.1-13.2,106.5-2.8,11.7-3.6,19.9-8.5,31.4-6.6,15.5-14.6,29.7-21.4,45.6-6.3,14.8-12.4,25.4-21.1,38.7-37.1,57.1-78.8,96.2-138.3,129.5-32.8,18.4-79,31.5-115.9,40.9-24.8,6.3-48.3,5.7-73.7,6.1-44.6.7-94.3-8.6-136.4-23.2-11.1-3.8-28.7-10.6-39-15.9-6.3-3.3-14.9-9.1-21.1-13.1-26.2-16.9-49.3-34.7-71.3-56.6ZM642.5,192c-16.5-16-41.1-41.7-61.7-51.2-19-8.7-38.1-18.2-58-24.6-24.2-7.8-65.9-15.2-91-13.8-40.3,2.4-84.4,26.9-103,63-10.5,20.4-16.6,49.1-12.5,71.9,7.3,40.9,32.4,67.3,66.3,88.3,2.3,1.4,7.5,5.7,9.4,6.3,1.3.4,1-.2,1.1-1,1.4-11.2,7.2-26.9,11.4-37.8,17.3-45.6,52.2-81.2,97.6-99,11.1-4.3,31.6-4.6,43.8-4.7,27.2-.1,55.2,16.2,73.8,35.3,9.7,9.9,18.7,32.9,21.1,46.5,5.7,32.1-6,74.7-29.8,97.4-19.3,18.3-47.5,34.7-72.9,42.5-15.8,4.8-41,10.4-57,10-2.5,0-5.7.6-8.2.6-3.7-.1-7.4-1-11.7-1.4-6.6-.7-10.9-3.9-16.8-5.6-.4,3.9-1.9,7.4-2.7,11.2-.7,3.7-4,16.7-3.8,19.9,0,1.3,4.3,2.8,5.4,3.2,2.8,1.1,6.7,2.9,9.3,3.9,2.5.9,8.9,5.3,11.5,7,26.6,17.4,47.4,34.8,66.6,60.2,22.6,29.9,35.3,56,40.2,93.7,2.1,16.2,2.9,27.1-1.7,43-3.1,10.6-8.3,24.9-12.7,35.1-3.1,7.2-11.1,19.7-13,26.2-.2.7-1.3,6.2-1,6.4,1.9,1.8,23.4-11,26.6-12.9,27.6-17.1,53-37.4,75.3-60.8,28.9-30.3,62.3-70.3,75.2-110.8,2.7-8.5,3.6-18.2,5.8-27,1.8-7.1,4.6-14.5,6.3-21.5,10.3-43.4,7-93.9.3-137.8-2-12.9-3.3-24.8-9.1-36.5-9.4-19.3-16.6-40.3-27.6-58.6-16.3-27.1-30.2-44.7-52.8-66.6ZM383.5,398.3c-.3-.6-10.4-6.1-11.9-6.9-26.1-13.5-44.6-23.2-64.9-45.5-16-17.6-25.3-34.1-36.2-54.3-20.5-38.1-18.4-86.6-5.6-127.2,4.3-13.8,11.1-26,17.5-38.8l-1.7-1.7c-10.4,4.5-21,8.9-30.5,15.1s-12.9,9.7-19.4,14.1c-17.6,12-27.2,17.6-42,33.5-19,20.5-42.9,42.5-57.4,66.6-9.2,15.3-19,30.9-25.8,47.6-3.8,9.4-10.7,27.2-12.6,36.6-1,4.9-1.9,9.9-3.1,14.7-2.2,8.6-3.4,11.4-3.4,20.9,0,10.2-1.6,16.7-2.1,26.3-1.1,17.4.4,39.4,1.5,57,2.3,37.8,10.3,62.3,23.9,96.5,12.1,30.5,32.9,60.6,53.8,85.8,22,26.6,55,53.6,85.5,69.9,26.7,14.2,66.5,33.3,96.5,35.2,20.4,1.4,42.2,1.9,62.4-1.8,38.8-7,81.3-33.4,94.7-72,6.7-19.1,9.1-37.6,8.6-57.8-.3-10.5-10-29.5-15.7-38.5-9.8-15.3-23.3-28.2-36.3-40.6-3.7-3.5-7.8-8.1-11.8-11-2.2-1.6-15.6-9.8-17.4-8.5l-12.7,41.8c-15,29-31,62.1-59.8,79.9-30.6,18.8-72.8,26.9-107.1,16.2-14-4.4-30.6-12.7-40.6-23.5-11.3-12.1-13.9-21-19.6-36-8.2-21.9-8.6-54.5.6-76.4,17-40.4,49.9-63.1,90.1-77.3,31.1-10.9,54.1-11.7,86.7-9.5,2.6.2,11,1.9,12.7,1.3s.9-.5,1.1-1.1c.6-1.9,1.3-8.8,1.5-11.3.3-2.8,1.3-18.1.6-19.4ZM563,328.1c11.9-11.9,17.6-26.5,16-43.6-.7-7.1-11.7-20.6-17.8-24.2-25.3-15.1-50.4-6.5-70.5,12.8-23.4,22.4-25.4,37.7-34,67.2-1.3,4.5-7.4,13.5,1,14.9,14.4,2.5,28.9.9,43.2-1.3,23.5-3.6,44.9-8.6,62.2-25.8ZM372.3,489.3c-5.3-.6-10.7-1.7-16-2.1-30.5-2.2-63.8,6.5-88.6,24.7-10.9,8-20.3,22.6-25.4,35.2-.4,1.1-1.6,5.1-2,7.9-.4,3-.1,7.5.3,10.7.3,2.4,3.2,8.2,3.5,9.7.3,1.5,1.3,3.2,2,4.5,2.6,4.7,3.2,3.8,8,7.4,8.6,6.5,17.4,7.6,28,8.3,11.7.8,34.8-4.5,44.5-11.1,20.9-14.3,30.5-43.5,37.6-66.4,2.9-9.5,7.3-18.5,8-28.6Z"/>
  </g>
</svg>