<?xml version="1.0" encoding="utf-8"?>
<!DOCTYPE svg PUBLIC "-//W3C//DTD SVG 1.1//EN" "http://www.w3.org/Graphics/SVG/1.1/DTD/svg11.dtd">
<svg version="1.1" id="Layer_1" xmlns="http://www.w3.org/2000/svg" xmlns:xlink="http://www.w3.org/1999/xlink" x="0px" y="0px"
	 width="800px" height="800px" viewBox="0 0 800 800" enable-background="new 0 0 800 800" xml:space="preserve">
<g>
	<path fill="none" stroke="#999" stroke-width="6" d="M380.901,484.195c0,29.592,11.299,48.422,50.034,48.422
		c38.198,0,53.801-15.064,53.801-34.434c0-8.068-2.152-13.988-8.07-19.906l0.538-2.15c19.367,0,38.736,12.91,38.736,33.355
		c0,8.07-2.152,15.602-5.381,21.52v0.539c10.223,5.918,14.525,16.678,14.525,27.438c0,13.986-12.912,28.516-25.823,33.895
		l-1.613-1.076c1.075-3.768,1.613-5.918,1.613-9.148c0-10.221-6.994-17.213-21.521-17.213c-21.52,0-44.115,13.986-77.473,13.986
		c-22.057,0-38.197-8.068-47.881-17.217h-0.538c-8.608,9.684-18.83,16.141-34.971,16.141c-21.52,0-37.659-17.752-41.964-37.66
		l1.614-1.074c4.842,4.303,12.912,7.531,20.982,7.531c15.602,0,25.823-8.607,25.823-30.666v-79.625
		c0-25.284-13.987-37.121-33.355-43.039v-2.151c19.368-5.918,33.355-17.754,33.355-43.041v-79.624
		c0-22.059-10.222-30.666-25.823-30.666c-8.07,0-16.141,3.228-20.982,7.532l-1.614-1.076c4.305-19.906,20.444-37.66,41.964-37.66
		c16.141,0,26.362,6.456,34.971,16.14h0.538c8.607-9.684,18.83-16.14,34.97-16.14c21.521,0,37.66,17.754,41.965,37.66l-1.615,1.076
		c-4.842-4.304-12.911-7.532-20.981-7.532c-15.602,0-25.824,8.607-25.824,30.666v79.624c0,25.286,13.987,37.122,33.357,43.041v2.151
		c-19.37,5.918-33.357,17.755-33.357,43.039V484.195z"/>
</g>
</svg>
