<?xml version="1.0" encoding="utf-8"?>
<!-- Generator: Adobe Illustrator 22.1.0, SVG Export Plug-In . SVG Version: 6.00 Build 0)  -->
<svg version="1.1" id="Layer_1" xmlns="http://www.w3.org/2000/svg" xmlns:xlink="http://www.w3.org/1999/xlink" x="0px" y="0px"
	 viewBox="0 0 297.6 419.5" style="enable-background:new 0 0 297.6 419.5;" xml:space="preserve">
<style type="text/css">
	.st0{fill:none;}
	.st1{fill:#999999;}
</style>
<g>
	<g>
		<path class="st0" d="M286.8,225.2c-0.1-1.1,0.2-2.1,0.1-3.2c-0.1-1.2-0.5-2.7-0.7-4.1c-0.4-3-1.1-5.5-1.6-8.1
			c-0.3-1.4-0.4-2.9-0.8-4.1c-0.4-1-1.2-1.8-1.5-2.8c-0.3-1-0.2-1.9-0.5-2.8c-0.3-0.9-0.5-1.8-0.8-2.6c-0.7-2-2.1-3.6-3-5.7
			c-0.4-0.8-0.5-1.7-0.9-2.5c-1.3-2.6-3.5-5.2-5.2-7.4c-0.6-0.8-1-1.8-1.6-2.6c-1.7-2.4-4.1-4.5-5.8-6.7c-0.6-0.8-1.1-1.8-1.7-2.5
			c-0.6-0.7-1.7-1.3-2.5-2.1c-0.8-0.8-1.5-1.6-2.4-2.2c-0.9-0.7-1.8-1.2-2.6-2c-0.8-0.7-1.6-1.6-2.4-2.2c-2.8-2.1-6.9-3.4-9.9-5.3
			c-2-1.3-3.3-2.1-5.6-3c-2.7-1.1-5-1.9-7.5-3.2c-2.4-1.2-5.3-1.9-7.9-2.8c-0.9-0.3-1.6-1-2.4-1.2c-1.2-0.4-2.4-0.1-3.4-0.4
			c-1.1-0.3-1.5-0.8-2.9-1.1c-1-0.2-2.2-0.6-3.4-0.7c-2.6-0.2-5.9,0.3-6.4-1.3c-0.3-1.2,1-3.5,1.3-4.4c0.4-1,0.6-2.3,0.9-3.7
			c0.3-1.4,1.1-2.7,1.2-3.6c0.1-0.6-0.1-1.4,0-2c0.1-0.6,0.5-1.2,0.5-1.8c0.1-0.6,0.1-1.4,0.1-2.1c0.2-1.6,0-2.9,0-4.4
			c0-1.2,0.3-2.3,0.3-3.3c-0.4-4.3-1.1-8.2-3.3-11.6c-1-1.5-3.1-2.7-3.3-4.6c-0.3-2,1-3.9,1.3-5.2c0.5-1.9,0.7-4,1.1-5.9
			c0.3-2.1,0.6-4.3,0.8-6.3c0.3-4.5-0.5-9.6-1.3-12.8c-0.3-0.9-0.4-1.9-0.7-2.8c-0.3-1.1-1.5-2.4-2.1-3.6c-0.7-1.3-1-2.7-1.6-3.8
			c-0.8-1.5-2.1-2.3-3.2-3.7c-1-1.4-2-2.9-3-3.8c-1.4-1.3-3.3-2.3-5-3.3c-1.9-1.1-3.9-1.6-5.9-2.5c-0.9-0.4-1.7-1.2-2.8-1.6
			c-1.8-0.7-3.1-0.7-5.6-0.9c-1-0.1-2.1-0.3-3-0.3c-1.7,0.1-3.5,0.8-5.4,0.4c-1-0.2-1.9-1.2-2.8-1.9c-2-1.5-3.6-2.2-5.9-3.2
			c-2.2-0.9-4.3-2-6.7-2.9c-1.1-0.4-2.4-0.8-3.6-1.2c-1.2-0.4-2.4-1-3.6-1.3c-1.7-0.5-3.4-0.3-5.2-0.5c-1.2-0.2-2.6-0.9-4.1-1.2
			c-3.2-0.6-6.6-0.5-9.8-1.1c-3.3-0.6-7.7-0.8-11-0.1c-1.1,0.2-2.2,0.9-3.4,1.3c-1.2,0.4-2.7,0.6-3.8,1.1c-0.8,0.3-1.6,1-2.4,1.5
			c-1.8,1-3.5,1.8-5,2.9c-0.7,0.6-1.3,1.3-2.1,1.9c-0.7,0.5-1.6,0.8-2.2,1.3c-0.5,0.4-0.9,1.2-1.5,1.8c-1.5,1.8-3,3.7-4.5,5.4
			c-1,1.2-2.4,2.1-3.3,3.3c-0.5,0.6-0.8,1.5-1.2,2.1c-0.5,0.7-1.1,1.2-1.5,1.8c-0.4,0.8-0.6,1.8-1.1,2.6c-0.5,0.8-1.2,1.6-1.5,2.4
			c-0.3,0.7-0.3,1.5-0.5,2.2c-0.8,1.9-2.3,3.5-3,5.4c-2.2,5.4-4.7,11.1-6.5,16.8c-0.2,0.6-0.2,1.2-0.4,1.7c-0.3,1-1,1.8-1.3,2.8
			c-0.6,1.7-0.8,3.6-1.3,5.3c-0.3,0.8-0.8,1.5-1.1,2.4c-0.1,0.6-0.1,1.2-0.3,1.7c-0.3,1-0.8,1.8-1.1,2.6c-0.5,1.7-0.2,3.5-0.4,5.4
			c-0.1,0.7-0.5,1.3-0.5,2c-0.2,2.2,0,4.8-0.1,7.4c0,0.5-0.2,1.2-0.3,1.7c-0.1,3.7,0.4,6.5,1.1,9.1c0.3,1.3,0.4,2.7,0.8,3.7
			c0.3,0.7,1,1.6,1.5,2.4c0.5,0.8,1,1.7,1.6,2.4c1.2,1.4,2.7,2.8,3.8,4.1c0.6,0.7,0.9,1.6,1.6,2.2c1.6,1.6,5.6,3.7,5.2,6.7
			c-0.2,1.5-2.6,2.4-3.7,3.4c-1.1,1.1-1.6,2.5-2.8,3.3c-1.1,0.7-2.6,1-3.8,1.6c-1.1,0.5-2.3,1.1-3.4,1.6c-2.4,1-5.1,1.5-7.5,2.5
			c-1.8,0.8-3.8,2.2-5.6,3.4c-0.9,0.6-1.8,1.2-2.8,1.7c-1,0.6-2.2,1-3,1.6c-1.1,0.7-1.8,2-2.8,2.8c-1.2,0.9-2.4,1.7-3.6,2.6
			c-2.3,1.9-4.3,4.1-6.3,6.2c-1.1,1.1-1.6,2.5-2.6,3.7c-0.7,0.8-1.6,1.3-2.2,2.1c-1.3,1.5-2.2,3.8-3.4,5.4c-0.6,0.9-1.6,1.5-2.1,2.4
			c-0.6,1.1-1.1,2.7-2,4.1c-0.8,1.3-1.8,2.6-2.2,3.8c-0.4,1.1-0.5,2.2-1.1,3.3c-1.5,3-2.7,6.3-3.4,9.8c-0.5,2.2-1.3,4.6-1.9,7
			c-0.5,2.4-1.3,5.1-1.3,7.5c0,1,0.2,2,0.3,3c0,1.2-0.1,2.4,0,3.4c0.2,2.3,1.1,4.1,1.8,6.1c0.5,1.5,1.5,3.3,1.3,4.9
			c-0.1,1.6-1.5,2-1.3,4.2c0.1,0.9,0.7,1.6,1.2,2.4c1.6,2.3,3.1,3.6,5.8,4.6c1.1,0.4,2.2,0.4,2.9,0.9c1.3,1.1,1,4.6,1.3,6.5
			c0.5,2.7,1.9,5.4,3,7.4c0.4,0.8,0.7,1.8,1.2,2.4c1.2,1.5,3.3,2.4,5.2,3.2c2,0.8,3.9,2.1,6.2,2.2c1.7,0.1,3.8-0.2,5-0.7
			c1.7-0.6,3.2-2.8,5.3-2.5c2.1,0.3,3.3,4.8,3,7.4c-0.1,1-0.8,2-0.9,3c-0.3,3.4,0.4,5.3,1.3,7.9c0.5,1.4,1.1,2.9,1.5,4.4
			c0.5,2.3,1.7,4.4,2.5,6.2c0.3,0.7,0.3,1.6,0.7,2.2c0.3,0.5,1,1.1,1.5,1.7c1.4,1.7,2.4,2.4,4.1,3.7c1,0.8,2,1.7,2.6,2
			c0.6,0.3,1.4,0.3,2.1,0.7c1.2,0.6,2.5,1.6,3.2,2.5c1.1,1.4,1.5,3.9,2,5.7c0.4,1.4,0.5,3,0.9,4.6c0.3,0.9,1,1.9,1.3,3.2
			c0.4,1.5,0.5,3,1.1,4.2c0.9,2,2.6,3.5,4.1,5c1.7,1.7,4.1,2.7,5.7,4.1c3.4,3,4.9,8.7,6.6,13.2c0.6,1.7,1.5,3.8,1.2,5.4
			c-0.5,2.4-3.5,2.5-5.7,3.4c-1.3,0.6-2.3,1.1-3.7,1.3c-1.5,0.2-3.1,0.1-4.5,0.4c-0.6,0.1-1.2,0.5-1.8,0.7c-0.8,0.1-1.5,0-2.1,0.1
			c-1.6,0.4-4.8,2.4-4.8,4.2c0,1.3,1.2,2,1.7,3.3c0.4,1,0.3,2.1,0.8,2.9c1.2,1.9,4,1.5,6.5,1.2c2.1-0.2,4.2-0.2,6.1-0.5
			c1-0.2,2-0.9,2.6,0.1c-0.3,2.2-2.3,2.4-2.6,4.2c-1,5.3,4.9,6.4,9,4.6c0.6-0.2,1.1-0.8,1.7-1.3c0.6-0.4,1.3-0.9,1.9-1.3
			c1-0.9,1.7-2.1,2.8-2.9c1.2-0.9,2.6-1.3,4-2.5c3.2-2.7,7.7-5,12.6-5.7c3.5-0.5,6.5-1.4,9.8-2.4c2.4-0.7,6.4-2.9,5.9-6.2
			c-0.2-1.2-1.7-2.5-3.2-2.6c-1.3-0.1-2.3,0.5-3.8,0.7c-0.7,0.1-1.5-0.2-2.2-0.1c-0.7,0.1-1.4,0.6-2.1,0.7c-2.3,0.2-5.2-0.8-7.3-1.6
			c-2.5-0.9-4.1-1.8-5.3-3.6c-2.2-3.5-0.8-8.6,0.9-11.6c0.4-0.8,1.7-2.3,2.6-3.4c0.9-1.1,2-2.7,3.2-3c0.6-0.2,1.5,0,2.4-0.3
			c0.9-0.2,1.8-1.1,2.9-1.5c3.8-1.2,9.2-1.8,14-2.1c1.7-0.1,3.4-0.9,4.6-0.8c1.1,0,2.2,0.7,3.4,0.8c1.8,0.1,3.4-0.8,5-0.9
			c1.2-0.1,2.6,0.3,4,0.4c1.5,0.1,2.9,0,4.4,0.1c5.5,0.3,10.6,1.3,15.6,2.1c2.6,0.4,5.1,1.3,7.5,1.4c1.2,0.1,2-0.2,2.9,0
			c1.6,0.3,2.6,1.7,4.2,2.4c1.4,0.6,2.9,1.1,4,1.7c0.5,0.3,1,0.9,1.6,1.3c1.2,0.9,2.4,1.8,3.6,2.5c2,1.3,3.2,2.5,4.8,4.2
			c1,1.1,2.1,2.3,2.6,3.4c0.7,1.3,1.3,3.7,0.9,4.8c-0.7,2.3-5.9,1.3-9,1.1c-1.9-0.2-3.4-0.1-4.9-0.5c-1.5-0.4-2.7-1.5-3.8-1.6
			c-4.5-0.5-5.3,4.4-2.9,6.6c1.2,1.1,4,2.4,5.7,2.8c0.8,0.2,1.7,0,2.6,0.3c0.8,0.2,1.6,0.7,2.5,0.9c2.8,0.8,5.9,1.1,8.5,2
			c1.8,0.6,3.7,0.9,5.3,1.7c0.7,0.4,1.3,1.1,2,1.5c0.8,0.4,1.6,0.7,2.4,1.2c1.5,0.9,2.6,2.1,4.1,2.9c0.7,0.4,1.3,1,2,1.5
			c0.7,0.5,1.7,0.6,2.5,1.1c1.5,0.8,3.2,1.4,4.8,2.2c1.5,0.8,3,1.8,4.6,2.4c3,1,6.8,1,6.9-2.2c0-1.9-1.3-2.7-2.5-3.6
			c-0.6-0.5-1.1-1-1.7-1.3c-0.6-0.3-1.7-0.4-1.7-1.5c1.5-1.2,4-0.5,5.6-0.3c0.7,0.1,1.4,0,2.1,0.1c2,0.3,3.8,1,6.1,0.7
			c2.9-0.5,2.5-2.7,4.2-4c0.5-0.4,1.4-0.4,2-0.8c2.4-1.5,0.6-3-1.3-4.6c-1.9-1.6-2.7-2.3-4.9-2.6c-0.4-0.1-0.7-0.3-1.2-0.4
			c-0.9-0.3-1.9-0.3-2.8-0.5c-0.9-0.2-1.7-0.6-2.5-0.8c-1-0.3-2-0.1-3-0.3c-1.1-0.2-2.3-1.1-3.4-1.4c-0.7-0.2-1.4-0.1-2.1-0.3
			c-0.6-0.1-1.2-0.5-1.8-0.7c-2.8-0.7-4.6-1.3-6.3-2.8c-1.6-1.4-4.1-4.5-4.9-6.3c-0.5-1-0.6-2.3-1.1-3.6c-0.4-1.1-1.2-2.1-1.6-3.2
			c-0.4-1.1-0.8-2.3-1.2-3.4c-0.5-1.2-1.1-2.4-1.2-3.6c-0.1-1.4,0-3,0-4.6c0-3.5,0.2-6,0.7-8.6c0.2-1.4,0.2-2.8,0.7-3.8
			c0.4-1,1.7-2.1,2.8-2.5c3.1-1.2,7.5-1.4,10.7-3c0.8-0.4,1.4-1.2,2.1-1.8c0.7-0.6,1.6-1,2.4-1.6c0.7-0.5,1.3-1.4,2-2
			c0.8-0.7,1.7-1.2,2.1-1.9c0.8-1.2,1.3-3.6,1.9-4.9c0.9-1.9,1.8-3.4,2.4-5.6c0.6-2,1.6-4.2,1.6-6.5c0-1.6-0.8-2.9-0.7-4.4
			c0.2-2,1.7-3.5,2.6-5.3c1.4-2.5,2.2-6.7,5.7-6.7c1.4,0,2.5,1.1,4,1.2c1.1,0.1,2.9-0.8,3.8-0.7c2.5,0.5,4.6,0.9,6.2,0
			c1.7-0.9,2.5-4.6,3.3-7c0.9-2.6,0.7-5.5,2.6-7.1c5.1,0.6,6.9-1.8,9.5-4.2c1.1-1,2.8-2.3,3.6-3.4c0.3-0.4,0.6-1.3,1.1-2
			c0.9-1.5,1.8-3,1.9-5c0.1-1.7-0.7-3.6-0.5-5.7c0.1-1.3,0.9-2.5,1.2-3.8c0.6-2.8,1-5.4,1.2-8.5c0.1-1.2,0.3-2.5,0.3-3.7
			C287.4,227.5,286.8,226.4,286.8,225.2z"/>
	</g>
	<g>
		<path class="st1" d="M269.9,262.6c-1.9,1.6-1.8,4.6-2.6,7.1c-0.8,2.4-1.6,6.1-3.3,7c-1.6,0.9-3.7,0.5-6.2,0
			c-0.9-0.2-2.7,0.7-3.8,0.7c-1.4-0.1-2.6-1.2-4-1.2c-3.5,0.1-4.3,4.2-5.7,6.7c-1,1.7-2.5,3.3-2.6,5.3c-0.1,1.5,0.6,2.8,0.7,4.4
			c0,2.3-1,4.5-1.6,6.5c-0.6,2.1-1.5,3.6-2.4,5.6c-0.6,1.3-1.1,3.6-1.8,4.9c-0.4,0.6-1.3,1.1-2.1,1.9c-0.7,0.6-1.3,1.5-2,2
			c-0.8,0.6-1.7,0.9-2.4,1.6c-0.7,0.6-1.3,1.4-2.1,1.8c-3.2,1.7-7.6,1.9-10.7,3c-1.1,0.4-2.4,1.6-2.8,2.5c-0.4,1-0.4,2.5-0.7,3.8
			c-0.4,2.6-0.7,5.1-0.7,8.6c0,1.6-0.1,3.3,0,4.6c0.1,1.2,0.7,2.4,1.2,3.6c0.4,1.1,0.8,2.3,1.2,3.4c0.4,1.1,1.2,2.1,1.6,3.2
			c0.4,1.2,0.6,2.5,1.1,3.6c0.8,1.8,3.3,5,4.9,6.3c1.8,1.5,3.6,2.1,6.3,2.8c0.6,0.2,1.2,0.5,1.9,0.7c0.7,0.2,1.4,0.1,2.1,0.3
			c1.2,0.3,2.4,1.3,3.4,1.5c1,0.2,2,0,3,0.3c0.9,0.2,1.7,0.6,2.5,0.8c0.9,0.2,1.9,0.3,2.8,0.5c0.4,0.1,0.8,0.3,1.2,0.4
			c2.2,0.4,3,1,4.9,2.6c1.9,1.6,3.7,3.1,1.3,4.6c-0.6,0.4-1.5,0.4-2,0.8c-1.7,1.3-1.4,3.5-4.2,4c-2.3,0.4-4.1-0.4-6.1-0.7
			c-0.7-0.1-1.4,0-2.1-0.1c-1.5-0.2-4-0.9-5.6,0.3c0,1,1.1,1.1,1.7,1.4c0.6,0.4,1.1,0.9,1.7,1.3c1.2,0.9,2.5,1.6,2.5,3.6
			c0,3.2-3.9,3.3-6.9,2.2c-1.6-0.5-3.1-1.6-4.6-2.4c-1.6-0.8-3.3-1.5-4.8-2.2c-0.8-0.4-1.8-0.6-2.5-1.1c-0.7-0.5-1.2-1.1-2-1.5
			c-1.5-0.8-2.6-2-4.1-2.9c-0.8-0.5-1.6-0.8-2.4-1.2c-0.7-0.4-1.3-1.1-2-1.5c-1.6-0.8-3.5-1.1-5.3-1.7c-2.6-0.9-5.7-1.2-8.5-2
			c-0.9-0.3-1.7-0.7-2.5-0.9c-0.9-0.2-1.9-0.1-2.6-0.3c-1.7-0.4-4.5-1.7-5.7-2.8c-2.4-2.2-1.6-7.1,2.9-6.6c1.1,0.1,2.3,1.2,3.8,1.6
			c1.5,0.4,3,0.4,4.9,0.5c3.1,0.3,8.2,1.2,9-1.1c0.3-1-0.3-3.4-0.9-4.8c-0.6-1.1-1.6-2.3-2.6-3.4c-1.6-1.7-2.7-2.9-4.8-4.2
			c-1.2-0.7-2.4-1.6-3.6-2.5c-0.6-0.5-1.1-1-1.6-1.3c-1.1-0.6-2.6-1.2-4-1.7c-1.7-0.7-2.7-2.1-4.2-2.4c-1-0.2-1.7,0.1-2.9,0
			c-2.4-0.2-4.9-1-7.5-1.5c-5-0.8-10.1-1.8-15.6-2.1c-1.4-0.1-2.9,0-4.4-0.1c-1.4-0.1-2.7-0.5-4-0.4c-1.6,0.1-3.2,1-5,0.9
			c-1.3-0.1-2.4-0.7-3.4-0.8c-1.2,0-3,0.7-4.6,0.8c-4.8,0.4-10.2,0.9-14,2.1c-1.1,0.3-2,1.2-2.9,1.5c-0.8,0.2-1.8,0.1-2.4,0.3
			c-1.2,0.4-2.2,2-3.2,3c-0.9,1.1-2.2,2.7-2.6,3.4c-1.7,3-3.1,8.2-0.9,11.6c1.1,1.8,2.8,2.7,5.3,3.6c2.1,0.8,5,1.8,7.3,1.6
			c0.7-0.1,1.4-0.6,2.1-0.7c0.7-0.1,1.5,0.2,2.2,0.1c1.5-0.1,2.6-0.8,3.8-0.7c1.5,0.2,3,1.5,3.2,2.6c0.5,3.3-3.5,5.5-5.9,6.2
			c-3.3,1-6.3,1.9-9.8,2.4c-4.8,0.7-9.3,3-12.6,5.7c-1.4,1.2-2.8,1.6-4,2.5c-1.1,0.8-1.8,2-2.8,2.9c-0.5,0.5-1.3,0.9-1.9,1.3
			c-0.6,0.5-1.2,1.1-1.7,1.3c-4.1,1.8-10,0.6-9-4.6c0.3-1.8,2.4-2,2.6-4.2c-0.6-1-1.6-0.3-2.6-0.1c-1.9,0.3-4,0.3-6.1,0.5
			c-2.4,0.3-5.3,0.7-6.5-1.2c-0.5-0.8-0.4-1.9-0.8-2.9c-0.5-1.4-1.7-2-1.7-3.3c0-1.8,3.2-3.9,4.8-4.2c0.7-0.1,1.4,0,2.1-0.1
			c0.6-0.1,1.2-0.5,1.9-0.7c1.4-0.3,3-0.2,4.5-0.4c1.4-0.2,2.4-0.8,3.7-1.3c2.2-0.9,5.2-1,5.7-3.4c0.3-1.6-0.6-3.7-1.2-5.4
			c-1.7-4.6-3.2-10.2-6.6-13.2c-1.6-1.4-3.9-2.4-5.7-4.1c-1.6-1.5-3.2-3.1-4.1-5c-0.6-1.2-0.7-2.8-1.1-4.2c-0.3-1.2-1.1-2.3-1.3-3.2
			c-0.5-1.6-0.5-3.2-0.9-4.6c-0.5-1.8-0.9-4.3-2-5.7c-0.7-0.9-2-1.9-3.2-2.5c-0.7-0.4-1.5-0.4-2.1-0.7c-0.6-0.3-1.7-1.2-2.6-2
			c-1.7-1.3-2.7-2-4.1-3.7c-0.5-0.6-1.2-1.2-1.5-1.7c-0.3-0.6-0.3-1.5-0.7-2.2c-0.8-1.8-2-3.9-2.5-6.2c-0.3-1.5-0.9-2.9-1.5-4.4
			c-0.9-2.6-1.6-4.5-1.3-7.9c0.1-1,0.8-2,0.9-3c0.3-2.6-0.9-7.1-3-7.4c-2.1-0.3-3.6,1.9-5.3,2.5c-1.2,0.4-3.3,0.8-5,0.7
			c-2.3-0.1-4.2-1.5-6.2-2.2c-1.9-0.7-4-1.7-5.2-3.2c-0.5-0.6-0.8-1.6-1.2-2.4c-1.1-2-2.5-4.7-3-7.4c-0.4-1.9,0-5.3-1.3-6.5
			c-0.7-0.6-1.8-0.5-2.9-0.9c-2.7-1-4.2-2.4-5.8-4.6c-0.5-0.7-1.1-1.5-1.2-2.4c-0.2-2.3,1.2-2.6,1.3-4.2c0.1-1.6-0.8-3.4-1.3-4.9
			c-0.7-2-1.6-3.8-1.9-6.1c-0.1-1.1,0-2.3,0-3.4c0-1-0.3-2.1-0.3-3c0.1-2.4,0.8-5.1,1.3-7.5c0.5-2.4,1.4-4.8,1.9-7
			c0.8-3.5,2-6.8,3.4-9.8c0.5-1.1,0.7-2.2,1.1-3.3c0.4-1.2,1.4-2.5,2.2-3.8c0.9-1.4,1.3-3,2-4.1c0.5-0.9,1.5-1.5,2.1-2.4
			c1.2-1.7,2.1-3.9,3.4-5.4c0.7-0.8,1.5-1.3,2.2-2.1c1-1.2,1.6-2.6,2.6-3.7c2.1-2.1,4-4.3,6.3-6.2c1.1-0.9,2.4-1.7,3.6-2.6
			c1-0.8,1.7-2.1,2.8-2.8c0.9-0.6,2-1,3-1.6c1-0.6,1.9-1.1,2.8-1.7c1.8-1.2,3.8-2.7,5.6-3.4c2.5-1,5.1-1.5,7.5-2.5
			c1.1-0.5,2.3-1,3.4-1.6c1.2-0.6,2.7-0.8,3.8-1.6c1.2-0.8,1.7-2.3,2.8-3.3c1.1-1.1,3.5-2,3.7-3.4c0.5-3.1-3.5-5.1-5.2-6.7
			c-0.7-0.7-1-1.6-1.6-2.2c-1.2-1.3-2.6-2.7-3.8-4.1c-0.6-0.6-1.1-1.5-1.6-2.4c-0.5-0.8-1.2-1.7-1.5-2.4c-0.4-1-0.4-2.4-0.8-3.7
			c-0.7-2.7-1.2-5.4-1.1-9.1c0-0.6,0.2-1.2,0.3-1.7c0.2-2.6,0-5.2,0.1-7.4c0-0.7,0.5-1.3,0.5-2c0.2-1.9-0.1-3.7,0.4-5.4
			c0.2-0.9,0.8-1.7,1.1-2.6c0.1-0.6,0.1-1.2,0.3-1.7c0.2-0.8,0.8-1.5,1.1-2.4c0.6-1.7,0.8-3.6,1.3-5.3c0.3-1,1-1.8,1.3-2.8
			c0.2-0.6,0.2-1.2,0.4-1.7c1.8-5.7,4.3-11.4,6.5-16.8c0.8-1.9,2.3-3.5,3-5.4c0.3-0.7,0.3-1.5,0.5-2.2c0.3-0.8,1-1.5,1.5-2.4
			c0.5-0.8,0.6-1.8,1.1-2.6c0.3-0.6,1-1.2,1.4-1.9c0.4-0.6,0.7-1.5,1.2-2.1c0.9-1.2,2.3-2.1,3.3-3.3c1.5-1.7,3-3.6,4.5-5.4
			c0.6-0.7,1-1.4,1.5-1.9c0.6-0.5,1.5-0.8,2.2-1.3c0.8-0.6,1.4-1.3,2.1-1.9c1.5-1.1,3.2-1.9,5-2.9c0.8-0.5,1.6-1.1,2.4-1.4
			c1.2-0.5,2.6-0.7,3.8-1.1c1.2-0.4,2.3-1.1,3.4-1.3c3.3-0.7,7.6-0.5,11,0.1c3.2,0.6,6.6,0.5,9.8,1.1c1.5,0.3,2.9,1,4.1,1.2
			c1.8,0.3,3.4,0.1,5.2,0.5c1.2,0.3,2.4,0.9,3.6,1.3c1.2,0.4,2.4,0.8,3.6,1.2c2.4,0.9,4.6,2,6.7,2.9c2.4,1,4,1.7,5.9,3.2
			c0.9,0.7,1.8,1.7,2.8,1.9c1.9,0.4,3.7-0.3,5.4-0.4c1-0.1,2,0.2,3,0.3c2.4,0.2,3.8,0.2,5.6,0.9c1.1,0.4,1.8,1.2,2.8,1.6
			c2,0.9,4.1,1.4,5.9,2.5c1.7,1,3.6,2,5,3.3c1,1,2.1,2.5,3,3.8c1,1.4,2.4,2.2,3.2,3.7c0.6,1.1,0.9,2.6,1.6,3.8
			c0.6,1.1,1.8,2.4,2.1,3.6c0.2,0.8,0.4,1.8,0.7,2.8c0.8,3.2,1.7,8.3,1.3,12.8c-0.1,2-0.5,4.3-0.8,6.3c-0.3,2-0.6,4.1-1.1,6
			c-0.3,1.3-1.6,3.2-1.3,5.2c0.3,1.9,2.4,3.1,3.3,4.6c2.2,3.4,2.9,7.3,3.3,11.6c0.1,1-0.2,2.2-0.3,3.3c0,1.5,0.2,2.7,0,4.4
			c-0.1,0.7-0.1,1.5-0.1,2.1c-0.1,0.6-0.4,1.2-0.5,1.9c-0.1,0.6,0.1,1.3,0,2c-0.1,0.9-0.9,2.1-1.2,3.6c-0.3,1.4-0.6,2.7-0.9,3.7
			c-0.3,0.9-1.6,3.2-1.3,4.4c0.4,1.6,3.7,1.1,6.3,1.3c1.3,0.1,2.4,0.5,3.4,0.7c1.4,0.3,1.8,0.8,2.9,1.1c1.1,0.3,2.2,0,3.4,0.4
			c0.8,0.2,1.5,0.9,2.4,1.2c2.6,0.9,5.5,1.6,7.9,2.8c2.5,1.2,4.9,2.1,7.5,3.2c2.3,0.9,3.5,1.8,5.6,3c3,1.9,7.1,3.2,9.9,5.3
			c0.8,0.6,1.6,1.5,2.4,2.2c0.8,0.8,1.8,1.3,2.6,2c0.8,0.7,1.6,1.4,2.4,2.3c0.8,0.8,1.9,1.4,2.5,2.1c0.6,0.7,1.1,1.7,1.7,2.5
			c1.7,2.2,4.1,4.4,5.8,6.7c0.6,0.8,1,1.8,1.6,2.6c1.7,2.2,3.8,4.8,5.2,7.4c0.4,0.8,0.6,1.7,0.9,2.5c0.9,2.1,2.3,3.7,3,5.7
			c0.3,0.9,0.5,1.7,0.8,2.6c0.3,0.9,0.3,1.8,0.5,2.8c0.3,1,1.1,1.8,1.5,2.8c0.4,1.2,0.5,2.7,0.8,4.1c0.5,2.6,1.2,5.1,1.6,8.1
			c0.2,1.4,0.6,2.9,0.7,4.1c0.1,1.1-0.2,2.1-0.1,3.2c0.1,1.2,0.6,2.3,0.7,3.4c0.1,1.2-0.2,2.5-0.3,3.7c-0.2,3.1-0.6,5.7-1.2,8.5
			c-0.3,1.3-1.1,2.6-1.2,3.8c-0.2,2.1,0.6,3.9,0.5,5.7c-0.1,2-1,3.5-1.9,5c-0.4,0.7-0.7,1.5-1.1,2c-0.8,1.1-2.5,2.4-3.6,3.4
			C276.8,260.8,275,263.2,269.9,262.6z M166.9,55c-2.1,0.3-2.6-4.4-2.9-5.4c-0.3-1-1.7-2.2-2.6-3.2c-1-1.1-1.8-2.4-2.6-2.9
			c-0.7-0.4-1.9-0.6-2.8-1.1c-1.9-0.9-3.5-1.6-5.2-2.5c-0.9-0.5-1.5-1.3-2.4-1.6c-0.9-0.3-2.1-0.4-3.3-0.8c-1-0.3-1.9-0.9-2.9-1.2
			c-0.8-0.2-1.6-0.2-2.4-0.4c-0.9-0.2-1.6-0.9-2.5-1.1c-0.7-0.2-1.5,0-2.2-0.1c-0.9-0.1-1.7-0.7-2.6-0.8c-0.7-0.1-1.5,0.1-2.2,0
			c-2.6-0.3-5.2-1-7.8-1.1c-5.2-0.1-10.6-0.3-14.5,1.5c-0.9,0.4-1.5,1.3-2.4,1.7c-1.7,0.9-2.9,1.4-4.2,2.5c-2.7,2.2-4.5,4.5-7,7.1
			c-0.9,0.9-1.6,2-2.4,3c-0.8,1.1-1.9,1.9-2.5,2.9c-0.6,0.9-1,1.9-1.6,2.9c-1.2,1.9-2.3,3.8-3.4,5.7c-0.6,1-1.5,1.9-1.9,2.8
			c-0.7,1.6-1.1,3.3-1.8,4.8c-0.4,0.6-1,1.1-1.3,1.7c-0.4,0.8-0.3,1.8-0.5,2.6c-0.2,0.8-0.6,1.6-0.9,2.4c-0.6,1.5-1.5,2.9-2.1,4.4
			c-0.4,1-0.4,2.1-0.7,3.2c-0.5,1.6-1.3,3.4-1.9,4.8c-0.8,1.8-1.3,3.6-1.8,5.3c-0.8,2.6-0.9,5.4-1.7,7.9c-0.2,0.7-0.9,1.4-1.1,2.1
			c-0.4,1.5-0.6,3.3-0.8,4.9c-0.7,5.1-0.1,11.1,1.2,15.3c0.2,0.7,0.8,1.2,1.1,2c0.2,0.6,0.2,1.3,0.4,1.9c0.7,2.1,1.8,4.6,2.8,6.1
			c0.5,0.7,1.5,1.3,2.2,2.1c0.7,0.8,1.3,2,2,2.6c1.3,1.3,3.3,2.7,5.3,4.1c0.9,0.6,1.8,1.4,2.6,2c1,0.7,1.9,1.5,2.8,2
			c0.7,0.4,1.6,0.5,2.2,0.8c2.2,1,4.1,2.6,6.5,3.4c0.7,0.2,1.5,0.3,2.2,0.5c1.3,0.5,2.4,1.4,3.7,2c1.6,0.7,3.6,1,5.4,1.6
			c1.8,0.6,3.6,1.7,5.2,2c1.2,0.2,2.2,0.3,3.3,0.5c2.2,0.5,4.3,1,6.3,1.3c1.1,0.2,2.3,0.2,3.6,0.4c0.5,0.1,1.1,0.6,1.7,0.7
			c0.8,0.1,1.4-0.2,2.2-0.1c1.9,0.2,3.3,1.5,5.2,1.6c0.9,0.1,1.8-0.3,2.8-0.3c1.3,0.1,2.4,0.6,3.6,0.5c1.1-0.1,2.2-0.7,3.3-0.7
			c0.7,0,1.3,0.4,2,0.4c1.6,0,3.2-0.8,4.9-0.8c0.9,0,2,0.4,2.9,0.4c1.7-0.1,3.6-1,5.4-1.3c3.1-0.5,6.6-0.4,9.7-1.3
			c0.7-0.2,1.3-0.5,2-0.7c3.2-1,5.8-2.7,8.7-3.3c0.6-0.1,1.2,0,1.7-0.1c1.5-0.4,3.2-1.7,4.8-2.2c0.8-0.3,1.5-0.2,2.1-0.5
			c0.8-0.4,1.7-1.4,2.6-2.4c1.7-1.8,3-3.3,4.4-5.1c0.6-0.8,1.4-1.7,1.9-2.6c0.3-0.6,0.3-1.3,0.7-1.9c0.3-0.6,1-1.1,1.3-1.7
			c0.5-1,1-2.4,1.6-3.6c1.3-2.7,1.3-5.8,1.7-9c0.2-1.7,0.7-3.3,0.9-4.9c0.2-1.8,0.1-3.5-0.1-5.4c-0.4-3.8-1.3-9.1-3.7-10.8
			c-0.6-0.4-1-0.8-2.1-0.9c-0.8,1.6-0.7,3.8-1.7,5.3c-0.5,0.8-1.2,1.6-2.2,1.6c-1.2-1-0.3-2.3,0-3.3c0.7-2.2,1.6-4.7,1.1-7.9
			c-0.2-0.8-1.3-3.3-2.1-4.1c-1.1-1-4.6-2.1-4.9,0c-0.1,0.6,0.7,1.5,1.1,2.1c1.2,1.8,1.5,4.5,0.8,7.3c-0.2,0.9-1,1.8-1.4,2.8
			c-0.4,0.9-0.5,1.7-0.8,2.2c-0.3,0.5-1.2,1.3-2,2c-1.4,1.3-2.7,2.2-5.3,1.5c-1.1-0.3-2.3-2-3.6-1.7c-1,0.3-1.2,2.8-0.9,4.5
			c0.1,0.5,0.8,1.4,1.1,2.2c0.3,0.9,0.4,2.3,0.8,2.8c0.5,0.7,2,1.3,2.9,2c1,0.7,2.1,1.3,3,2c1.2,0.9,2.3,2.4,3.2,2.9
			c0.9,0.5,2.2,0.5,3,0.9c0.8,0.4,2.6,2,2.5,3.3c-0.2,1.8-2.9,1.7-4.4,2.1c-1.2,0.3-1.9,1-3.7,1.2c-1.8,2-2.8,4.4-4.2,6.7
			c-0.4,0.7-0.8,1.3-1.2,2c-0.8,1.4-1.4,2.8-2.2,4.2c-0.5,0.9-1.6,1.9-2.4,3c-0.8,1.1-1.3,2.5-2.1,3.4c-0.8,0.9-2.7,2.4-3.8,2.5
			c-2.3,0.2-3.4-1.4-4.5-2.6c-2.3-2.7-3.3-5.9-5.6-8.6c-1.5-1.7-3.7-2.2-5.7-3.6c-0.6-0.4-2.2-1.6-2-3.2c0.1-1.4,2.3-2.8,3.3-2.8
			c1.3,0.1,3.3,1.9,4.2,2.6c1.5,1.2,2.8,2.3,3.6,3.4c0.8,1.1,1.4,2.4,2.1,3.6c0.8,1.2,1.6,2.2,2.4,3.3c0.5,0.8,1.4,3.2,2.6,3.3
			c1.2,0.1,2.9-2.6,3.4-3.6c1.5-2.6,2.6-5.6,3.6-8.6c0.8-1.3,2.2-1.9,2.6-3.6c-1.6-1.8-4.2,0.3-6.2,0.3c-1.3,0-3.1-1.2-3.7,0.4
			c0.8,1.5,2.6,0.4,2.9,2c0.2,0.8-0.7,2.7-1.1,3.4c-0.6,1.3-1.5,2-2.8,1.7c-1.1-0.2-1.6-1.8-2.2-2.5c-0.7-0.8-1.7-1.5-2.5-2.4
			c-1.6-1.7-3.8-3.1-5.7-4.4c-1-0.7-2.3-1.1-3.2-1.9c-0.7-0.6-1-1.8-2-1.8c-1.3-0.1-2.6,2.3-4,2.9c-2.8,1.4-5.6,1-8.9,0
			c-2-0.6-3.9-0.9-5.4-1.3c-0.6-0.2-1.6-0.8-2.4-0.8c-1.5,0.1-2.5,1.4-2.8,2.4c-0.5,2,1.5,5.3-0.8,5.6c-1.9,0.2-3.4-2.5-3.6-4.6
			c-0.2-2.4,1.1-5,3-5.6c1.4-0.4,4.9-0.5,6.6-0.4c2.4,0.2,4.4,1.9,7.1,2c1.9,0.1,5.2,0.1,6.5-0.9c0.8-0.6,1.3-2.4,1.2-3.3
			c-0.2-1.8-2.2-2.7-1.9-4.2c0.4-1.5,1.9-0.6,3.3-0.9c1.4-0.3,2.6-3.1,4.2-4c0.8-0.4,2-0.8,2.9-1.1c1.1-0.3,2.4-0.2,3.3-0.7
			c0.7-0.4,1-1.4,1.6-2.1c0.5-0.7,1.4-1.4,1.7-2c0.4-0.7,0.4-1.7,0.8-2.5c0.3-0.7,0.8-1.2,1.1-1.9c0.7-1.8,1.1-3.7,1.9-5.4
			c0.9-2.1,2.4-3.9,3.2-5.7c0.3-0.6,0.4-1.4,0.7-2c0.6-1.1,1.8-1.2,2.8-2c0.9-0.7,1.5-1.8,2.8-2.8c-0.1,0.1,3.6-2.2,3.8-0.1
			c0.1,0.9-2.1,1.8-2.8,2.2c-1,0.6-2.3,1.4-3,2.1c-0.5,0.6-1,1.6-1.7,2.5c-0.7,0.9-1.6,1.7-1.8,2.4c-0.3,1-0.2,2.5-0.4,3.7
			c-0.3,1.9-0.7,2.8-0.4,5.2c0.1,1.1,0.8,4.9,2,4.8c1.3-0.1,1.6-5.1,1.9-6.3c0.3-1.3,1-2.6,1.3-3.8c0.3-1.5,0.3-2.4,0.8-3.4
			c0.5-0.9,2-3.2,2.6-3.8c1.5-1.6,4.9-4,7.8-4.2c1.4-0.1,3.5,0,5,0.5c1.1,0.4,1.5,1.4,2.4,2.4c0.9,0.9,1.9,1.5,2.2,2.6
			c0.4,1.2-0.2,2.7,1.2,3.3c0.8-1.4,1.1-3.2,1.3-4.8c0.3-1.9,0.3-3.9,0.5-5.7c0.4-3.1,0.9-7.6,0.7-11c-0.1-1.3-0.8-2.5-0.9-3.7
			c-0.1-0.6,0-1.4-0.1-2.1c-0.3-1-0.9-2.3-1.5-3.6c-0.5-1.1-1.2-2.2-1.7-3.3c-1.1-2.4-2.2-4.7-3.7-6.5c-0.5-0.6-1.3-1.2-1.9-1.9
			c-0.7-0.7-1.2-1.5-1.7-2.1c-1.6-1.7-4.1-3.1-6.1-4.4c-0.8-0.5-1.4-1.3-2-1.6c-0.9-0.4-2.4-0.8-3.8-1.2c-1.3-0.4-2.7-1-3.8-1.3
			c-1.3-0.3-4.9-1.6-5.3-0.1c-0.3,1.2,0.7,1.6,1.3,2.3c0.6,0.7,1.3,1.6,1.6,2.1c0.6,1,2.5,4.7,0,4.8c-1.9,0-1.5-3.1-3.6-3
			C166.9,52.4,168.7,54.8,166.9,55z M179.9,102.1c1.4-0.6,2-1.9,2-3.8C179.9,95.9,178.1,101.2,179.9,102.1z M183,126.3
			c-1.1-0.7-2.3-1.6-3.4-2.5c-2-1.7-3.6-4.3-5.4-6.2c-0.8-0.8-1.8-1.9-2.6-3.2c-0.8-1.2-1.3-3-2.5-3.3c-1.5-0.4-2,3.5-3.4,4.6
			c-0.8,0.7-3.2,1.8-4.2,2.1c-0.9,0.2-1.8,0-2.9,0.4c-1.8,0.6-4.3,2.9-4.5,5c-0.1,0.8,0.3,2.6,0.4,2.8c0.3,0.6,3.2,2,3.7,2.2
			c2.2,1,5.5,1.9,7.8,2.1c0.9,0.1,2-0.1,2.8,0c0.8,0.1,1.8,0.4,2.5,0.4c1.4,0,2.8-0.8,4.2-0.9c1.6-0.2,3.2,0.3,4.9,0.3
			c1.1,0,2.2-0.5,3.2-0.5c0.9,0,1.7,0.5,2.5-0.3C185.7,127.1,184.3,127.1,183,126.3z M283.5,235.3c0.1-0.6,0.3-1.1,0.4-1.7
			c0.2-1.6-0.1-3.5-0.1-5.3c0-1.9,0.3-3.7,0.3-5.2c0-1.4-0.5-2.9-0.7-4.5c-0.2-1.6-0.1-3.2-0.4-4.8c-0.2-1-0.6-1.8-0.8-2.8
			c-0.2-1.1-0.2-2.2-0.4-3.2c-0.2-1.1-1-2.2-1.3-3.2c-0.9-2.7-1.5-5.3-2.5-7.8c-0.4-0.9-0.9-1.6-1.3-2.5c-0.4-0.9-0.7-2-1.1-2.8
			c-0.4-0.7-1.1-1.4-1.5-2.1c-0.3-0.6-0.3-1.3-0.5-1.9c-0.5-1-1.7-1.7-1.6-2.9c-2.7-2.6-4.8-5.6-7.1-8.3c-1.2-1.3-2.5-2.7-3.7-4.1
			c-1.2-1.4-2.3-3-3.6-4.2c-0.8-0.8-1.9-1.4-2.8-2.1c-0.9-0.7-1.7-1.6-2.6-2.4c-1.9-1.6-4.1-2.5-6.2-3.7c-1.5-0.9-2.8-2.3-4.4-2.9
			c-0.7-0.3-1.5-0.2-2.2-0.5c-1.9-0.8-3.4-2.2-5.3-3.2c-0.8-0.4-1.8-0.5-2.8-0.9c-0.8-0.4-1.6-0.9-2.5-1.3
			c-3.3-1.5-6.7-2.1-10.4-3.3c-1.2-0.4-2.4-1-3.7-1.3c-1.4-0.3-2.8-0.6-4.2-0.9c-3.3-0.9-6.4-2.5-9.8-2.1c-0.7,0.6-1.6,1.7-2.6,2.8
			c-1,1-1.9,2.1-2,3.4c-0.1,2.4,2.3,3.9,2.8,5.7c0.5,1.7,0.9,4.9,0.5,7.1c-0.4,2-2.1,3-3.4,4.5c-0.9,1-1.9,2.1-2.9,2.8
			c-2.3,1.6-5.1,3.4-7.1,4.5c-0.8,0.4-1.7,0.7-2.5,1.3c-0.8,0.6-1.6,1.3-2.2,1.6c-0.5,0.2-1.1,0.2-1.7,0.4c-1.3,0.5-2.6,1.5-4,2.1
			c-0.6,0.3-1.4,0.4-2,0.7c-0.7,0.3-1.3,0.7-1.8,0.8c-0.7,0.2-1.4,0-2.1,0.1c-1.1,0.2-2.3,0.8-3.4,1.2c-1.7,0.6-3.7,0.9-5.2,1.2
			c-0.5,0.1-1.2,0-1.6,0.1c-0.9,0.2-1.5,1-2.4,1.2c-0.9,0.2-2,0-2.9,0.1c-0.7,0.1-1.2,0.7-1.9,0.9c-0.9,0.3-2,0.5-2.9,0.7
			c-0.7,0.1-1.5-0.1-2.2,0c-1.1,0.2-1.9,0.9-3,1.1c-0.9,0.1-1.8-0.1-2.8,0c-0.8,0.1-1.5,0.5-2.4,0.5c-0.9,0-1.9-0.4-2.8-0.3
			c-1.2,0.1-1.6,1-2.5,1.1c-0.9,0.1-2-0.2-2.9-0.3c-1,0-2.1,0.2-3,0.1c-0.9-0.1-1.7-0.5-2.5-0.5c-0.8-0.1-1.7,0.1-2.5,0
			c-1-0.1-2.1-0.4-3.2-0.5c-1.1-0.1-2.4,0-3.4-0.1c-0.6-0.1-1.2-0.5-1.8-0.5c-0.5-0.1-1.1,0.1-1.6,0c-0.9-0.1-1.8-0.7-2.8-0.8
			c-0.6-0.1-1.2,0.1-1.7,0c-0.6-0.1-1.3-0.6-2.1-0.9c-4-1.3-7.7-2.3-11.4-3.8c-1.5-0.6-3.3-0.8-4.6-1.5c-0.7-0.4-1.6-1-2.4-1.5
			c-0.9-0.5-1.8-0.9-2.5-1.3c-1.1-0.7-2.1-1.8-3.3-2.6c-1.2-0.8-2.6-1.6-3.7-2.4c-0.5-0.4-1-1-1.6-1.5c-1.5-1.2-1.9-1.6-2.9-3
			c-0.4-0.6-0.9-1.1-1.2-1.7c-0.9-1.6-1.6-5.7-3-5.9c-1.2-0.2-2.5,1-3.6,1.6c-1.2,0.7-2.2,1.6-3.3,2c-0.6,0.2-1.7,0.2-2.2,0.4
			c-0.9,0.3-2.3,1.6-3.6,2.5c-1.2,0.9-2.7,1.5-3.8,2.2c-0.9,0.6-1.8,1.6-2.8,2.2c-0.7,0.4-1.5,0.6-2.1,1.1c-1,0.7-1.8,2-2.8,2.8
			c-1,0.8-2.1,1.3-3,2.1c-1,0.9-2.1,1.7-2.8,2.5c-0.5,0.6-0.8,1.4-1.2,1.9c-0.8,0.9-1.7,1.2-2.2,1.9c-0.4,0.5-0.6,1.3-0.9,1.8
			c-0.4,0.7-1.2,1.1-1.6,1.7c-0.6,1-0.9,1.8-1.6,2.6c-0.6,0.7-1.5,1.2-2.2,2.1c-0.6,0.7-0.9,1.8-1.6,2.6c-2.3,3.2-4.4,6.2-6.1,9.8
			c-1.6,3.4-3.2,6.6-4,10.4c-0.3,1.6-1.1,2.9-1.5,4.4c-0.8,3.2-1.3,6.3-1.3,10.3c0,2.9,0.1,9.7,2.2,9.8c1.2,0,1.9-2.2,2.4-2.8
			c0.7-0.9,2.1-1.8,3.2-3c1.7-2,2.6-4.3,4.4-5.7c1.2-1,4.2-2.2,6-2.2c1.3-0.1,2.9,0.7,3.7,0.3c0.9-0.5,0.5-2.6,0.5-4.2
			c0-2.4,0.3-6.5,0.7-8.9c0.2-1,0.6-1.9,0.7-2.5c0-0.8-0.2-0.9-0.1-1.6c0.1-0.7,0.7-1.7,0.9-2.5c0.8-2.6,1.2-5,2.2-7.3
			c0.9-2.1,1.9-4.3,3-6.6c1-2,2.4-3.7,3.6-5.9c0.7-1.3,2.6-5.5,4.4-5.3c1.8,0.2,1.2,3,1.1,3.6c-0.3,1.1-1.1,2.2-1.6,3.3
			c-0.5,1.1-1,2.8-1.5,3.6c-0.9,1.5-2.2,1.5-3.2,2.9c-0.9,1.4-1.2,4.1-2.3,6.3c-0.5,1-1.2,1.8-1.6,2.8c-0.4,1.2-0.5,2.7-0.8,3.8
			c-0.2,0.9-0.9,2-1.1,2.9c-0.1,0.9,0.2,2.2,0.1,3.4c-0.1,2.3-0.7,6.2-0.9,9.3c-0.4,5.1,3.3,5.2,5.3,7.8c1,1.3,1.9,3.4,1.7,6.3
			c0,0.7-0.4,1.5-0.5,2.4c-0.2,1.8-0.4,4.8,0.1,5.9c0.6,1.4,2.7,1.8,4.4,2.1c1.1,0.2,4.4,0.4,4.9,1.7c0.2,0.6,0,1.9-0.1,2.4
			c-0.5,1.4-2.1,2.8-3.3,3.4c-1,0.5-2.2,0.6-2.6,1.3c-0.8,1.3,0,3.1,0.4,4.5c0.5,1.4,0.8,3,1.5,4c0.8,1.3,3.3,2,3.4,3.8
			c0.1,1.6-2,3.1-2,4.8c0,2,1.6,5.1,2.2,7.1c0.2,0.6,0.6,1.4,0.7,2c0.4,2.8-1.3,4.3-1.3,6.1c0,1.1,0.4,2.2,0.7,3
			c0.2,0.8,0.2,1.9,1.3,2.4c0.6-1.4,0.3-2.8,1.1-4.1c0.4-0.7,1.4-1.6,2.2-1.7c2-0.4,4.3,0.9,4.4,2.6c0,0.8-0.8,1.5-0.9,2.4
			c-0.1,1.2,0.3,3.2,0.7,4.8c0.7,3.2,1.6,5.8,2.2,8.6c0.3,1.4,0.3,3.4,1.9,3.7c1.1-0.5,0.6-2.2,0.4-3.6c-0.2-1.3-0.3-2.8-0.5-4.1
			c-0.2-1.2-1.9-5.3-0.4-5.8c1.3-0.4,2.9,5.5,3.2,6.6c0.3,1.1,0.1,2.2,0.1,2.8c0.2,1.2,0.9,2.9,1.3,4.2c0.4,1.2,1,3.5,2.5,3.2
			c1.2-0.3,0.6-3.6,0.4-4.6c-0.2-1.2-0.6-3.3-0.9-4.9c-0.3-1.5-1.5-4.2,0.7-4.2c1.6,0,1.3,2,1.6,3.7c0.3,1.8,1.3,4.4,1.7,6.9
			c0.5,2.5,0.4,5.8,2.9,5.7c1.3-1,0.2-2.4,0-3.7c-0.2-1.1-0.4-2.4-0.5-3.6c-0.3-3.4,0.7-7.8-1.1-9.4c-1.2-1.1-2.6-0.6-4.4-1.1
			c-1.4-0.3-2.2-1.9-3.4-2.6c-1.1-0.6-2.2-0.7-3.4-1.3c-0.5-0.2-2.7-1.3-2.1-2.4c0.4-0.9,1.9-0.4,2.6,0c0.8,0.4,1.2,1,2.2,1.5
			c0.8,0.4,1.8,0.4,2.6,0.8c1.8,0.8,3.5,2.3,5.6,3c0.8,0.3,1.8,0.4,2.6,0.7c1,0.3,1.9,0.8,2.5,0.9c1.2,0.3,2.4,0,3.7,0.3
			c1.1,0.2,1.9,1.5,2.9,1.7c1.3,0.2,2.7-0.2,4,0.3c1,0.3,1.9,1.2,2.9,1.5c0.6,0.1,1.2-0.1,1.9,0c1,0.1,2,0.5,3.2,0.7
			c2.5,0.4,4.7,1.2,6.9,1.5c1.4,0.2,2.9,0,4.2,0.3c1.1,0.2,2.2,0.8,3.3,1.1c1.3,0.3,2.6,0.4,3.8,0.7c0.7,0.2,1.4,0.6,2.1,0.7
			c0.6,0,1.2-0.3,1.9-0.3c1.9,0,4,0.7,5.9,0.7c0.8,0,1.5-0.3,2.2-0.3c0.9,0.1,1.7,0.6,2.6,0.7c1.5,0.1,2.9-0.4,4.4-0.4
			c1.4,0,2.5,0.5,3.8,0.4c0.7-0.1,1.4-0.4,2.2-0.5c1.2-0.1,2.6,0.2,3.8,0c0.8-0.1,1.4-0.6,2.3-0.7c0.8-0.1,1.7,0.1,2.5,0
			c1-0.1,1.9-0.6,2.8-0.7c0.6,0,1.3,0.3,1.8,0.3c0.7,0,1.5-0.4,2.2-0.4c2.7-0.1,5.5,0,7.9-0.3c1.9-0.2,3.6-1.3,5.4-1.3
			c0.7,0,1.4,0.3,2.1,0.3c0.7,0,1.5-0.3,2.4-0.5c1.7-0.4,3-0.7,4.4-1.1c1.2-0.3,2.5-0.2,3.6-0.5c1.2-0.4,2.1-1,3.2-1.3
			c1-0.3,2.1-0.3,3-0.5c1-0.3,1.8-0.6,2.8-0.9c2-0.7,4.2-0.8,6.1-1.3c0.6-0.2,1.2-0.6,1.9-0.8c1.4-0.5,3-0.8,4.5-1.3
			c1.5-0.5,2.9-1.3,4.2-1.7c0.8-0.2,2.2-0.3,3-0.5c1.4-0.4,3.7-1.3,5.4-1.9c0.8-0.2,1.9-0.4,2.8-0.7c2.4-0.8,4.8-2.1,7.1-3.3
			c1.1-0.5,2.2-1.1,3.3-1.8c1.4-0.9,2.7-1.5,3.2-2.1c0.4-0.5,0.6-1.8,1.1-2.8c0.6-1.3,1.2-1.9,1.3-3c0.3-2.8-1.7-3.2-3-5
			c-0.4-0.5-0.5-1.3-0.8-1.7c-0.7-1-1.9-1.6-2.6-2.6c-0.8-1.1-1.8-2-2.1-3.2c-0.7-2.6,0.8-3.4,1.9-5c1.4-2.3,2.8-3.7,3.8-6.2
			c0.4-1,0.8-2.6,1.7-3.3c1.2-0.9,2.6-0.7,4.2-1.5c1.5-5.3-0.3-11.1,0.8-15.6c0.5-2,2.5-2.8,3-4.4c0.3-1,0.1-2.5,0.3-4
			c0.1-0.9,0.5-1.5,0.5-2.1c0.2-2.7,0-6.8-0.1-9.5c-0.1-3.7-1.7-8.2-2.6-11.9c-0.5-1.9-1-3.7-1.7-5.6c-0.7-1.9-1.3-3.9-2.2-5.2
			c-1-1.3-3.3-2.3-4.5-3.8c-0.9-1.1-1.1-2.6-1.7-4.2c-0.6-1.4-2.2-3.3-0.1-4.2c3.8-0.2,5.1,2.2,6.6,4.8c1.1,1.8,2.3,3.6,2.9,5.3
			c1.9,4.9,4.3,10.2,5.5,15.6c0.2,0.8,0.5,1.6,0.7,2.4c0.1,0.6-0.1,1.1,0,1.7c0.2,1.9,1,3.8,1.1,5.7c0,2-0.3,3.9-0.1,5.8
			c0.1,0.9,0.6,2,0.7,3c0.2,1.9-0.5,4.1,0.7,5.4c1.3,0,1.6-0.9,2.9-0.9c0.9,0,1.7,0.5,2.5,0.5c1.6,0.1,3-0.5,4.2-0.5
			c2.2,0,3.1,1,4.6,1.3c0.6,0.1,1.3,0.1,2,0.3c0.6,0.2,1.4,0.7,2.1,1.1c0.8,0.4,1.7,0.7,2.2,1.1c1,0.7,1.8,2.1,2.9,3
			c0.5,0.4,1.1,0.6,1.6,0.9c1.1,0.9,1.7,2.6,3,3.2C283.6,238.3,283.3,236.7,283.5,235.3z M101.2,179.1c0-5.3,0.1-12.3,1.9-16
			c0.5-1.1,2.3-2.5,2.4-4c0-0.7-0.6-2.1-1.3-2.5c-1-0.6-2.8-0.3-4.1-0.8c-1.1-0.4-1.8-1.7-2.6-2c-0.6-0.2-1.4-0.2-2.1-0.4
			c-1.2-0.3-2.3-0.6-3.4-0.8c-1.2-0.6-1.3-1.8-2.6-2.1c-0.8-0.2-2.1,0.1-3.2-0.3c-1.5-0.5-2.3-2.2-4-2.1c-1.4,0.1-3.6,2.1-4.2,3
			c-0.3,0.4-0.3,1-0.7,1.5c-0.8,1.2-2.1,2.1-2.6,3.6c-0.9,2.4-1.5,6.6,1.2,7.3c1.1-0.6,0.8-1.8,1.2-2.9c0.3-0.8,1.3-1.3,1.7-2.2
			c0.3-0.5,0.3-1.2,0.5-1.7c0.4-0.7,1.2-1.5,1.7-2.2c0.5-0.8,1.1-2,2.1-1.6c0.4,1.2-0.5,2.1-1.1,2.9c-0.7,1-1.6,1.8-2,2.6
			c-0.6,1.5-1.1,3.8-1.2,5.4c-0.2,2.6,1.2,6.5,3.3,6.2c1-0.1,1.8-3.4,2.1-4.6c0.5-1.9,0.8-2.5,1.6-4.1c0.4-0.9,0.8-1.9,1.2-2.6
			c0.2-0.3,1.6-2.2,2.5-2c1.6,0.4-0.4,3-0.8,4c-0.4,0.9-0.6,2.2-0.9,3.2c-0.6,2.1-1.9,6.3-1.1,9c0.4,1.2,2.2,1.7,3,2.2
			c1,0.6,1.3,1.6,2.6,1.8c1.8-1.7,1-5,1.3-7.8c0.1-0.7,0.5-1.5,0.7-2.3c0.3-1.7,0.2-3.6,0.7-4.9c0.3-0.8,1.1-1.4,1.6-2
			c0.6-0.7,1.1-1.7,2-1.7c0.7,0.9,0,2.1-0.3,3.2c-0.3,1.1-0.8,2.2-1.1,3.3c-0.4,1.6-0.1,3.7-0.3,5.7c-0.4,4.5-0.3,10.8,3.8,11.4
			C101.7,181,101.2,180,101.2,179.1z M193.1,159.8c0.2-1.6,1.5-3.2,1.5-4.4c-0.1-3-6.9-3.8-6.9-0.4c0,0.5,0.7,1.2,1.1,2
			c0.4,0.7,0.5,1.7,0.8,2.2c0.3,0.6,0.7,1,0.9,1.6c0.4,1.2,0.2,2.5,1.5,2.9C193,162.8,192.9,161.4,193.1,159.8z M182,157.9
			c0,1.8,1.8,3.2,2.4,4.8c0.3,1,0.5,2.5,0.7,4.1c0.1,1.1-0.1,3.6,1.1,3.7c1.2,0.1,1.8-3.6,2-5.4c0.3-3.8-0.8-5.8-0.8-9.1
			C185.6,153.7,182,155.7,182,157.9z M180.7,171.8c0.4-2.1,1.1-4.3,1.1-6.6c0-1.9-0.6-6.7-1.7-7.4c-0.8-0.5-2.4-0.3-3.3,0
			c-1.3,0.5-1.7,2.3-3,2.5c-0.8-0.3-1.4-0.9-2.1-0.9c-1.9-0.1-3,2.3-4.5,2.4c-0.8,0-1.6-0.7-2.5-0.8c-2.5-0.2-3.1,1.4-4.5,2.4
			c-0.8-0.5-0.9-1.3-1.9-1.6c-1.7-0.6-4,0.1-4.4,1.7c-0.4,1.9,1.1,3.9,1.3,6.2c0.1,0.7-0.1,1.3,0,2c0.1,0.8,0.4,1.6,0.4,2.2
			c0.1,1.9-1.9,8.4,0.4,8.7c2.2,0.3,2.5-2.9,2.8-4.9c0.4-2.7,1.3-6.3,1.1-9c-0.1-1.3-1.1-4,0.4-4.6c1.2,0.9,2.1,2.4,2.2,4.2
			c0.2,2.1,0.4,4.8,0.3,7.3c-0.1,1.2-0.9,2.9-0.7,4c0.5,2.1,3.3,0.7,4-0.1c0.7-0.8,1.1-3.7,1.4-6.1c0.3-2.1,0.2-5,0-7
			c-0.1-1.4-0.5-2.6,0.4-2.8c0.8-0.1,1.3,1.2,1.7,2c0.8,1.6,0.9,2.3,1.1,4.5c0.1,1,0.4,2.1,0.4,3.3c0,2-0.5,5.1,0.7,5.4
			c1.9,0.4,2.2-2.9,2.5-4.8c0.4-2.3,0.5-5,0.5-6.7c0-1.4-0.9-4.7,0.5-4.9c0.9-0.1,1.9,1.5,2.2,2.9c0.9,3.6-0.8,7.6,1.3,9.7
			C180.1,174.9,180.4,173.3,180.7,171.8z M112.6,178.1c-0.1-1.6,0-3.5-0.1-5c-0.2-2.9-0.4-6.8,0.7-9c0.8-1.6,2.5-2.5,0.9-4.4
			c-0.7-0.9-3.7-1.7-4.6-1.6c-1.9,0.2-2.3,2.4-2.9,4.1c-0.7,1.9-1.6,4.3-1.8,6.7c-0.3,3.3,0.5,5.2,0.7,8.3c0.1,2-0.1,3.9,0.5,4.9
			c1,1.6,3.9,1.7,6.2,2C114.1,182.7,112.9,181.4,112.6,178.1z M120.5,167.6c0.2-1.7,1.5-3.4,1.2-5.3c-0.3-1.4-2.2-2.7-4.1-2.2
			c-2.2,0.5-2.3,6.8-2.4,9.7c-0.1,3.4,0.7,6.8,0.9,9.7c0.1,0.7-0.1,1.5,0,2.1c0.3,2.2,2.8,4.8,4.9,3
			C120.9,179.4,119.9,173.3,120.5,167.6z M124,163.9c-0.4,0.9-0.3,2.2-0.4,3.4c-0.1,0.7-0.3,1.2-0.4,1.8c-0.4,4.3,1.2,8.9,1.2,12.6
			c0,0.7-0.3,1.6-0.3,2.1c0.1,1.4,1.3,3,2,3.2c0.6,0.1,1.3-0.3,2-0.3c0.9,0.1,1.3,0.6,1.8,0.5c1.8-0.3,1.4-3.5,1.3-6.5
			c-0.1-2.3-0.6-4.7-0.9-7.1c-0.3-1.9-0.8-4.7-0.7-6.5c0.1-1.1,0.6-2.8,0.3-4c-0.4-1.4-2.6-2.1-3.6-1.9
			C125.2,161.6,124.3,162.9,124,163.9z M137.4,165.4c-0.1-2.3-1.2-4.1-3.6-3.7c-2.6,0.4-1.7,3-1.6,5.6c0.1,1.2,0.1,2.6,0.3,3.8
			c0.3,2.3,1,4.7,1.3,7c0.2,1.4,0.1,2.7,0.3,4c0.1,1.2,0,2.7,1.1,3.3c0.5,0.3,1.3-0.3,1.7-0.5C137.2,179.5,137.7,171.5,137.4,165.4z
			 M152,177.2c0.3-2.7,0.6-6.3,0.4-8.7c-0.2-2-0.6-6.2-2.1-6.5c-1.4-0.3-3.6,0.4-4.1,1.7c-0.1,3,1.3,5.8,1.5,9
			c0.1,1.9-0.1,4.1,0,6.2c0.1,1.4-0.4,3.2,0.4,4.2C150.8,183.3,151.6,180.2,152,177.2z M140.5,172.8c0.2,2.4-0.4,4.6-0.4,6.5
			c0,0.8,0.3,1.5,0.3,2.2c0,2.1-0.3,4.6,2,4.4c1.6-0.2,2.2-3.3,2.2-5.4c0.1-3.5-0.3-7.2-0.1-11.4c0.1-2.5,0.3-5.4-0.9-6.1
			c-1.4-0.8-3.2-0.2-4,1.1C139.9,166.8,140.2,169.8,140.5,172.8z M37.4,236.3c-0.1-1.1-0.6-2.5-0.7-3.7c-0.2-2-0.3-3.7-1.3-4.5
			c-1-0.7-2.4-0.1-2.5,1.1c-0.1,0.6,0.6,1.6,0.9,2.4c0.8,1.8,1.5,3.1,2,4.8c0.2,0.8,0,2.1,1.1,2.4C37.6,238.4,37.4,237.2,37.4,236.3
			z M40.4,232.3c-0.1-1.7-0.1-3.3-1.6-3.7c-2.9,0.7,0,3.1,0.7,5c0.2,0.5,0.2,1.2,0.3,1.7c0.1,0.9-0.5,2.3,0.7,2.6
			C41.5,236.7,40.5,234.2,40.4,232.3z M32.9,234.5c-0.4-1.5-0.5-3.4-1.1-4.4c-1.1-1.9-3.1,0.2-2.5,2.1c0.4,1.4,2,3.9,2.8,5.2
			c0.4,0.6,0.6,1.6,1.3,1.5C33.9,237.7,33.2,236,32.9,234.5z M260.1,239.7c0.6-1.7,2.5-5,2.1-7c-0.3-1.4-2.3-2.2-3.3-0.9
			c-0.8,1-0.3,3.9-0.4,5.4c-0.1,2-0.4,4.3,0.7,4.6C259.9,241.5,259.8,240.5,260.1,239.7z M256.3,235.9c0.3-1.3,1.1-4.1-0.5-4.6
			c-1.9-0.6-2.5,1.6-2.5,2.9c0,1.2,0.5,2.8,0.7,4.4c0.2,1.9-0.3,4.2,1.2,4.5C255.9,240.8,255.8,238.2,256.3,235.9z M264.8,242.9
			c0.7-0.8,1.7-1.2,1.7-2.5c1.3-0.6,1.6-2.1,2.3-3.6c0.4-0.8,1.2-1.4,1.2-2.2c0-1.6-3-3-4.4-2.5c-1.6,0.6-1.8,3.7-2.1,6.1
			c-0.2,1.1-0.5,2.2-0.8,3.3c-0.3,1-0.8,2.7,0.5,3.2C264,244.7,264.2,243.6,264.8,242.9z M45.2,235c-0.1-1.3-0.6-2.4-1.2-2.9
			c-0.4-0.1-0.5,0.2-0.8,0.3c-0.4,1.9,0.1,4,0.3,5.6c0.1,0.8-0.2,2,0.8,2.1C45.1,239.1,45.3,236.7,45.2,235z M29.4,238.6
			c-0.6-2.1-0.8-4.6-2.5-5c0-0.1,0-0.2-0.1-0.1c-2.6,1.9,0.2,3.7,1.3,5.4c0.8,1.3,0.9,2.6,1.9,3C31.1,241.3,29.8,239.9,29.4,238.6z
			 M249.3,236.4c0.1,1.7,0.6,4.9,1.7,5.4c0.8-0.4,0.2-1.3,0.1-2.2c-0.1-2.1,1-5.6-1.2-5.8C249.2,234.3,249.2,235.4,249.3,236.4z
			 M266.2,247.6c0.3-1.2,2.3-1.3,2.8-1.7c0.4-0.3,0.5-1,0.9-1.6c0.3-0.5,0.9-0.8,1.2-1.3c0.3-0.4,0.3-1.2,0.7-1.7
			c0.9-1.3,2.3-1.4,2.4-3.3c0.1-1.8-1.1-3-2.5-2.6c-1.3,0.3-1.2,2.2-1.8,3.6c-0.5,1-2,2.8-2.6,3.8c-0.8,1.3-1.3,3.8-2.6,4
			c-0.7,0.1-1.5-0.7-2.5-0.9c-0.5-0.1-1.1,0.1-1.7,0c-1.4-0.2-3.4-0.5-4.8-0.1c-0.8,0.2-1.9,2-2.8,2.6c-2.5,2.1-7.7,1.9-9.8,4.4
			c-0.7,0.8-1.3,2.9-2.1,4.4c-0.9,1.5-1.6,3-2.2,4.4c-0.6,1.2-1.8,2.3-2.1,3.2c-0.1,0.2-0.5,2.1-0.4,2.8c0.6,3,3.5,0.6,4.5-0.7
			c0.9-1.2,1.5-4.2,3.2-4c2,0.2,0.5,2.7,0.1,3.4c-0.4,0.7-0.8,1.5-1.2,2.1c-0.9,1.5-2.2,3-1.5,4.8c0.4,0.9,2.7,1.8,3.8,1.6
			c1.4-0.3,2.6-2.6,3.3-4c0.9-1.6,1.5-3.6,3.2-4.2c3,1.1-1.4,6.4,0.5,7.9c1.3,1,2.6-0.5,3.3-1.6c0.6-0.9,1.4-2.2,1.7-3
			c0.6-1.5,0.8-3.6,2.6-3.4c3.5,0.4-1.8,7,1.5,7.3c0.6,0,1.2-0.6,1.7-1.5c1.1-1.7,1.4-2.6,1.9-4.8c0.4-1.9,1.6-4.2,1.9-5.9
			c0.1-0.8,0-1.9,0.3-2.5c0.5-1.1,2.3-1.2,3-2.4c0.8-1.4,0.4-2.9,0.3-4.8c1.5-1.4,3.3-3.5,4.9-4.9c0.7-0.6,2.1-1.5,3-1.2
			c-0.7,1.1-1.6,2.3-2.9,3.6c-0.8,0.8-3.2,2.1-3.2,3.4c0,1.1,1,1.6,1.6,1.6c1,0,1.5-1.3,2.5-2.1c0.7-0.5,1.1-0.5,1.6-1.1
			c0.4-0.5,0.7-1.2,1.1-1.7c0.8-1.1,2.4-2.8,2.1-4.4c-0.2-1-1.5-1.2-1.7-2.2c-0.2-0.8,0.2-1.6,0-2.2c-0.9-2.5-3.7-0.7-4.9,0.8
			c-0.5,0.7-0.7,1.7-1.5,2.5c-1.4,1.6-3,2.3-3.6,4.5c-0.2,0.7,0.1,1.8-0.8,2.2C267.3,249.5,265.9,249.1,266.2,247.6z M28.5,243.2
			c-0.3-0.7-1.3-2.3-2-3.4c-0.6-1-1.5-3-2.6-2.9c-0.8,0-1.3,1.1-1.3,1.6c-0.2,2.4,1.8,3.4,2.8,4.5c0.9,1,1.5,2.4,2.8,2.6
			C28.9,245.4,28.8,244,28.5,243.2z M24.1,244.6c-0.6-0.9-3.2-4.4-3.4-1.6c-0.1,1.3,1.4,2.3,2.1,3.3c0.8,1.1,1.8,2.6,3.2,1.6
			C25.9,246.6,25.1,245.9,24.1,244.6z M47.4,269c1,0.8,5.1,2.1,5.6,0.5c0.3-0.9-0.9-2.1-1.2-2.5c-1.6-2.1-3.6-4.5-4.2-7
			c-0.2-0.8-0.1-1.8-0.3-2.9c-0.1-0.9-0.6-2.1-0.4-2.9c0.6-2.4,3-0.2,4.9-0.5c0.9-0.2,1.5-0.9,1.5-1.7c0-1.6-2.6-1.8-4-2.5
			c-1.7-0.9-2.9-2.7-4.5-4.1c-0.7-0.6-1.5-0.9-2.4-1.5c-1.4-0.8-2.1-2-4-1.7c-0.7,0.1-2.9,1.2-3.4,1.6c-0.7,0.5-1.1,1.5-2,2.3
			c-0.7,0.6-1.7,1-2.5,1.7c-0.5,0.4-0.9,1.1-1.5,1.7c-1.9,2.3-3.3,5.2-2.5,9c0.4,1.9,1,4.1,1.7,6c0.7,1.9,1.3,3.8,2.5,5.3
			c1.1-0.1,1.4-1,2.4-0.9c1.8,0.1,3.1,2.6,4.2,3.6c0.6,0.6,1.5,1.1,2.2,1.6c0.8,0.5,1.9,1.2,2.6,0.4c-0.1-2.2-1.9-2.5-3-4
			c-0.5-0.7-2.3-4-0.4-4.2c1.8-0.2,2.7,3.2,3.8,4.1c0.5,0.4,1.5,0.5,2.2,0.9c1.2,0.6,2.1,2.1,2.9,1.3c1.2-1.2-1.8-2.4-2.5-3
			c-0.7-0.6-1.4-1.7-2-2.5c-0.7-0.9-1.3-2-1.1-3.4C45.5,260.8,45.4,267.3,47.4,269z M20.8,246.9c-0.6-0.8-1.5-2.5-2.4-1.3
			c0.5,2.7,2.1,4.3,4.5,5.2c0.1-0.2,0.2-0.3,0.4-0.4C23.6,249,21.7,248,20.8,246.9z M17,249.8c0.3,1.1,0.9,1.8,2,2.1
			C19.7,251,17.7,248.9,17,249.8z M273.7,259c0.9,0,1.3-0.5,1.3-1.3C274.4,256.7,272.9,258.2,273.7,259z M60.6,290.1
			c0,1.8,0.2,4.9,0.7,6.7c0.2,0.6,0.3,1.7,1.1,1.6c0.6-0.8,0.2-1.9,0.1-3c0-2.5,0.5-4.7-1.1-5.6C61,289.8,60.9,290,60.6,290.1z
			 M236.7,299.2c0.6-1.5,2.6-7.1,0.1-7.5c-2.8-0.5-1.3,4.4-1.6,6.6c-0.1,1.2-1.4,2.8-0.4,3.7C235.7,301.8,236.3,300.4,236.7,299.2z
			 M227.3,305.2c-0.1,0.5-2.4,4.9-0.4,5.2c1.2,0.1,2.5-3.3,3-4.6c0.8-2.1,1.1-4.5,1.6-6.1c0.4-1.4,2.3-4.1,1.5-5.8
			c-0.4-0.9-3-0.9-4.2-0.5c-0.7,0.2-1.3,1-2.2,1.3c-1.3,0.4-2.4,0.3-3.6,0.5c-1.3,1.6-3.2,1.3-5.2,1.9c-0.7,0.2-1.4,0.8-2.2,1.2
			c-0.8,0.4-1.7,0.7-2,1.5c-0.4,1.1,0.1,2.2,0.3,3.4c0.4,3.8-0.3,6.1-1.1,9.3c-0.4,1.7-1,4.5,0.8,4.6c2.9,0.1,3.3-6.1,4.1-8.2
			c0.4-1,1.1-1.9,1.3-2.8c0.5-2.5,0-5.3,2.1-6.1c1.2,0.6,1.2,2.4,1.2,3.7c0,1.4-0.3,3.3-0.7,4.8c-0.3,1.4-1.4,3.3,0,4.1
			c1-0.3,0.8-1.5,1.2-2.4c0.3-0.6,0.9-1.1,1.2-1.7c0.6-1.4,1.1-3.3,1.5-4.9c0.4-1.6-0.1-4,1.6-4.9
			C228.2,299.8,227.7,303,227.3,305.2z M209.8,311.3c0.2-0.8,0.8-1.6,0.9-2.4c0.3-1.4,0.3-2.4,0.7-3.7c0.3-0.9,1-2.6,0.8-3.6
			c-0.4-2.1-3.6-1.9-4.5-0.4c-0.8,1.4-0.4,3.8-0.5,5.8c-0.1,0.9-0.4,1.9-0.7,2.9c-0.3,1-0.4,2.2-0.7,3c-0.7,2-2.7,4.1-1.3,6.1
			C208.9,319.3,208.7,315.4,209.8,311.3z M84,305.1c0.3,1.2,0.2,2.7,0.5,4.2c0.1,0.6,0.6,1.4,0.8,2.2c0.5,2,0.7,4.5,1.3,5.6
			c0.5,0.8,2.2,1.8,2.9,1.6c1.1-0.3,0.9-2.6,0.5-4.1c-0.4-1.5-1.2-2.4-1.3-3.4c-0.1-0.9,0.1-1.9,0-2.9c-0.1-0.6-0.5-1.2-0.5-1.9
			c-0.2-2.6,0.2-4.5-1.3-5.4c-0.7-0.4-2.1-0.6-2.6-0.4C82.2,301.2,83.7,303.7,84,305.1z M200,309.6c-0.2,1.7-1,3.7-1.7,5.5
			c-0.4,0.9-2.1,4.8-0.4,5.3c1.3,0.3,2.6-2.4,3.3-3.8c0.9-1.7,1.7-3.1,2.2-4.9c0.2-0.7,0.1-1.4,0.3-1.9c0.2-0.7,0.8-1.4,1.1-2.4
			c0.4-1.3,1-3.5,0.5-4.6c-0.4-1-2.2-0.8-3-0.7C198.5,302.8,200.4,306.2,200,309.6z M95.7,317c-0.1-2.4-0.4-4.5-0.5-6.3
			c-0.1-1.7,0.2-3.3,0.1-4.8c-0.1-1.5-1.5-4.3-3.7-3.7c-1.9,0.5-0.8,3.3-0.4,4.8c0.3,1.1,0.5,2.3,0.8,3.4c0.6,2.5,0.8,5,1.5,6.9
			c0.3,0.9,1.1,2.1,2,2.1C96,318.8,95.7,317.8,95.7,317z M194.6,317.9c0.8-1.9,1.5-4.5,2-6.4c0.2-0.9,0.2-1.7,0.4-2.5
			c0.2-1.1,1.3-2.7,0.9-4.1c-0.6-2.3-4-0.9-4.6,0.7c-0.6,1.4-0.3,3.2-0.5,5.2c-0.2,1.5-0.5,3.4-0.9,4.8c-0.7,2.3-2.8,4.7-1.3,6.6
			C192.6,322.2,193.7,319.8,194.6,317.9z M97.9,310.7c0.2,2.5,0.6,3.8,1.2,5.8c0.5,1.6,0.9,3.2,1.5,4c0.5,0.8,2.3,1.7,3,1.5
			c1.9-0.6-0.4-8.2-0.5-9.5c-0.1-1.8,0.3-3.9,0-5.3c-0.4-1.9-3.2-2.9-4.8-2.4C96.1,305.4,97.8,308.6,97.9,310.7z M186,306.8
			c-0.8,0.9-0.4,2.7-0.7,4.6c-0.1,0.7-0.5,1.9-0.8,3.2c-0.2,1.1-0.3,2.3-0.7,3.4c-0.4,1.6-2.3,5.6,0.1,5.6c1.2,0,1.2-1.6,1.9-2.9
			c0.5-1.1,1.5-1.6,1.7-2.1c0.3-0.7,0.5-1.7,0.8-2.8c0.5-1.7,0.9-3.4,1.3-5.2c0.2-1,1.5-2.1,1.2-3.4c-0.3-1.2-1.9-1.4-2.6-1.3
			C187.6,305.9,186.4,306.2,186,306.8z M111.7,319.6c-0.1-1.5-0.6-3.1-0.8-4.8c-0.2-1.8,0-3.7-0.3-5.3c-0.2-1.5-1.7-3.2-3.4-2.9
			c-2.6,0.4-1.3,5.7-0.8,8.6c0.8,4.9,0.5,8.2,4.9,7.9C111.9,322.2,111.8,320.9,111.7,319.6z M177.5,308.8c-0.7,1.3-0.1,3.2-0.3,5.2
			c-0.1,1.7-0.4,4-1.1,5.8c-0.3,0.8-2.4,4.3-0.3,4.8c1.4,0.3,2.4-1.8,2.9-2.9c0.7-1.6,1.6-2.7,2-3.8c0.6-1.7,0.8-3.3,1.2-4.8
			c0.5-1.5,1.2-3.2,0.9-4.9C181.2,306.5,178.3,307.2,177.5,308.8z M113.9,313.9c0.1,1.3,0.1,2.9,0.3,4.1c0.1,0.5,0.5,1.2,0.7,2
			c0.3,1.2,0.4,2.5,0.7,3c0.5,0.9,1.9,2,2.6,1.9c2.3-0.5,0-7.3-0.1-9.1c-0.3-3.7,1-8.4-2.6-7.8C112.9,308.3,113.7,311.5,113.9,313.9
			z M169,314.4c-0.1,1.1-0.2,3.8-0.5,5.6c-0.3,2-1.3,5,0.5,5.3c1,0.1,2.3-1.7,2.8-2.8c0.7-1.5,1-3,1.5-4.2c0.5-1.5,0.7-2.5,1.2-4.4
			c0.3-1.2,1.1-3.6,0.4-4.8c-0.5-0.9-2.5-1.1-3.3-0.9C168.8,308.8,169.3,311.3,169,314.4z M162,310.3c-0.4,1.5,0.6,3.4,0.5,5.3
			c0,0.7-0.4,1.5-0.5,2.5c-0.1,0.6,0.1,1.4,0,2.5c-0.1,2.1-1.1,4.8,0.4,5c1,0.2,2.1-1.9,2.4-2.9c0.4-1.4,0.6-3.2,0.9-5
			c0.6-3,0.9-4.7,0.9-7.8C165.5,308.6,162.4,308.9,162,310.3z M132.4,315.5c0.1-1.2,0.7-2.4,0.4-3.6c-0.3-1.2-1.9-2.8-3.3-2.6
			c-2.7,0.3-1.9,4-1.6,6.5c0.3,1.8,0.3,3.8,0.5,5.2c0.1,0.4,0.5,1.1,0.7,1.9c0.3,1.2,0.1,2.3,0.8,2.8c0.6,0.4,1.7,0.5,2.6,0.3
			C133.9,323.6,132,319.1,132.4,315.5z M120.9,314.8c0,0.5-0.2,1-0.1,1.7c0.1,1.5,0.9,3.2,1.2,4.8c0.3,2,0.7,4.7,3.2,4
			c1.4-0.4,0.9-1.9,0.7-3.4c-0.2-1.4-0.1-2.9-0.1-3.8c-0.1-1.1-0.3-2.2-0.4-3.6c-0.1-1.5,0.2-3.1-0.1-3.7c-0.6-1.2-2.6-1.4-3.4-1.2
			C119.2,310.1,120.8,313.4,120.9,314.8z M155.6,312.2c0,0.9,0.4,2,0.5,3c0.1,2.3-0.3,4.7-0.4,6.7c-0.1,1.7-0.1,4.1,1.5,4.1
			c1.3,0,1.3-1.1,1.6-3.2c0.2-1.8,1-4.8,1.1-6.6c0.1-0.8-0.1-2.1,0-3.3c0.1-0.9,0.4-1.6,0.3-2.1c-0.3-1-1.5-1.3-2.1-1.2
			C156.8,309.8,155.6,310.7,155.6,312.2z M149.5,316.2c-0.1,1.6-0.1,2.3,0,3.7c0.1,2.5-0.5,7.1,2.1,6.6c1.9-0.3,1-4.8,1.2-6.9
			c0.1-1.3,0.4-3.1,0.5-4.2c0.1-1,0.9-2.8,0.8-3.6c-0.2-1.1-2.5-1.7-3.2-1.6C148.5,310.6,149.6,313.9,149.5,316.2z M135.5,315.4
			c0.1,2.9,0.6,7.6,1.5,8.7c0.3,0.4,1.4,1,2.1,0.8c1.4-0.4,0.8-4.1,0.8-6.5c0-3.3,0.9-9.1-3-8.1C134.9,310.8,135.3,313,135.5,315.4z
			 M143.1,318.8c0.3,1.8,0.2,7.4,1.9,7.5c2.3,0.2,1.4-4.5,1.6-6.6c0.1-2.1,1.5-7,0.1-8.6c-0.6-0.7-2-0.9-2.9-0.7
			C140.8,311.3,142.7,316,143.1,318.8z M244.1,370.4c-1-0.3-2.3-0.6-3.2-0.9c-1-0.3-1.7-1.1-2.5-1.3c-2.4-0.8-4.5-0.8-6.9-1.6
			c-4.5-1.4-8.4-3.3-11.5-5.7c-2.2-1.7-3.8-3.3-5.4-6c-1.1-1.8-2.3-3.7-2.8-5.7c-0.2-1-0.3-2.1-0.5-3c-0.6-2.2-1.3-4.6-1.7-7.1
			c-0.2-1.3,0.1-2.6,0-4.1c0-0.6-0.4-1.2-0.4-2c-0.1-3.1,1.2-5.2,1.7-7.5c1.2-5.5-4.4-2.6-7.7-1.7c-0.8,0.2-2,0.3-2.6,0.5
			c-0.7,0.2-1.2,0.7-1.8,0.8c-0.6,0.1-1.1-0.2-1.7-0.1c-1.1,0.1-2.2,0.8-3.3,0.9c-0.7,0.1-1.4-0.1-2,0c-1.5,0.2-2.8,1.1-4.4,1.2
			c-0.7,0-1.4-0.1-2.1,0c-0.7,0.1-1.4,0.6-2.1,0.7c-1.8,0.2-3.5-0.2-5.2,0.1c-0.7,0.1-1.3,0.7-2,0.8c-0.4,0.1-0.9-0.1-1.3-0.1
			c-1.1,0-2.3,0.5-3.4,0.5c-0.6,0-1.2-0.2-1.9-0.1c-0.9,0-1.8,0.4-2.6,0.5c-3.9,0.4-8,0-11.9,0.4c-0.7,0.1-1.3,0.4-2,0.4
			c-1.7,0.1-3.4-0.4-5.2-0.4c-0.8,0-1.5,0.4-2.2,0.4c-1,0-1.8-0.4-2.8-0.4c-0.8,0-1.3,0.4-2.1,0.4c-0.7,0-1.4-0.5-2.1-0.5
			c-1.6-0.2-3.4,0.1-5.3,0.1c-2.2,0-4.4-0.4-6.5-0.4c-0.7,0-1.3,0.2-2,0.1c-1.9-0.1-3.6-0.6-4.9-0.8c-0.8-0.1-1.6,0-2.4-0.1
			c-0.8-0.1-1.6-0.5-2.2-0.5c-0.6,0-1.3,0.2-1.9,0.1c-0.8-0.1-1.6-1-2.5-1.1c-1.5-0.2-3.2,0.4-4.8,0.3c-1.3-0.1-2.5-0.9-3.7-1.1
			c-1.3-0.1-2.7,0.2-4-0.1c-1-0.3-1.8-1.1-2.9-1.5c-1.3-0.4-2.8-0.4-4.1-0.9c-0.6-0.2-1.1-0.8-1.7-1.1c-0.5-0.2-1.2-0.2-1.7-0.4
			c-0.8-0.3-1.4-1-2.1-1.3c-0.5-0.2-1.4-0.2-2.1-0.4c-1.5-0.4-2.9-0.9-4.8-1.3c-1-0.2-2-0.7-2.4-0.7c-2.5,0.2-0.7,3,0,4
			c0.5,0.7,1.2,1.5,1.6,2.5c0.2,0.6,0.2,1.3,0.4,2c0.4,1.3,1.5,2.9,2.1,4.5c0.7,1.7,1.1,3.8,1.8,4.8c1.1,1.4,2.9,2,4.2,3
			c0.6,0.4,1.1,1.2,1.7,1.8c0.6,0.6,1.4,1.1,2,1.7c0.4,0.4,0.7,1.2,1.2,1.7c0.5,0.6,1.1,1,1.5,1.6c0.4,0.6,0.6,1.5,1.1,2.4
			c0.4,0.8,0.9,1.6,1.2,2.4c0.9,2.5,2,5.2,2.5,7c0.6,2,1.7,9.5-0.8,9.7c-1.1,0.1-1.8-1.4-3.2-1.5c-1,0-2.4,0.9-3.8,1.5
			c-1.2,0.5-2.7,1-4,1.3c-3.2,0.8-8.6,0.8-8.9,4c1.2,0.7,2.5,0,3.8-0.1c2.5-0.2,4.4-0.2,6.3-0.8c1.4-0.4,3-1.4,3.6,0.3
			c-0.3,1.8-2.7,1.5-4.2,2c-0.8,0.3-1.4,1-2.1,1.2c-1.2,0.4-2.8-0.1-3.2,1.3c0.7,0.9,1.9,0.2,2.9,0.3c0.6,0,1.2,0.3,1.7,0.3
			c0.5-0.1,1.3-0.7,2.2-0.9c0.8-0.2,1.6-0.2,2.2-0.4c0.7-0.3,1.7-1.1,2.5-1.3c0.8-0.3,1.8-0.4,2.8-0.7c1.6-0.5,3.2-1.2,3.4,0.4
			c0.3,1.7-1.8,2.2-2.9,2.9c-2,1.2-5,3.6-5.4,5.2c-0.4,1.5-0.1,2.3,0.7,2.6c1.7,0.7,4.1-2,5.4-3c1.7-1.4,3.2-3,4.6-4.1
			c1-0.8,2.4-1.4,3.4-2.4c1.1-1,2.2-2.1,3.4-2.5c0.8-0.3,1.8-0.2,2.8-0.5c0.8-0.2,1.6-0.8,2.4-0.9c1.8-0.4,3.4-0.2,5.3-0.5
			c0.8-0.1,1.5-0.6,2.4-0.8c0.9-0.2,1.9-0.2,2.8-0.4c1.6-0.3,4.1-0.4,4.5-2c-1.8-1.1-3.9-0.4-5.6-0.3c-11.1,0.8-19.5-4.6-18.2-15.9
			c0.3-2.7,2.1-7.1,3.4-8.9c0.5-0.7,1.5-1.3,2.2-2c0.8-0.7,1.6-1.6,2.4-2c0.7-0.4,1.6-0.4,2.4-0.8c1-0.5,1.7-1.6,2.8-2
			c1.1-0.4,2.4-0.3,3.7-0.7c0.9-0.3,1.5-0.9,2.4-1.2c2.7-0.9,5.3-0.4,8.3-0.7c0.6-0.1,1.1-0.5,1.7-0.5c1.6-0.1,3.4,0.1,5.2-0.3
			c0.7-0.1,1.4-0.6,2.1-0.7c0.8,0,1.7,0.5,2.5,0.5c1.8,0.1,3.7-0.3,5.6-0.1c1.3,0.1,2.5,0.5,3.8,0.5c1,0,2.1-0.2,3-0.1
			c1.2,0.1,2.3,0.4,3.4,0.4c2.5,0.1,4.8,0,7,0.4c1.5,0.2,2.8,0.9,4.2,1.1c1.1,0.1,2.1,0.1,3.2,0.3c3.3,0.6,6.3,0.9,9.1,2
			c1.5,0.6,3.1,0.8,4.5,1.3c1,0.4,2.1,1.1,3,1.6c1.1,0.6,2.2,1.2,3,1.7c0.6,0.4,1.1,1.2,1.7,1.6c0.6,0.4,1.3,0.5,1.9,0.9
			c0.9,0.6,1.6,1.6,2.5,2.4c0.9,0.8,1.7,1.5,2.5,2.4c1.6,1.9,3.8,3.5,4.8,5c0.7,1,1.8,3.3,2,5.7c0.2,3.2-1,6.7-3.2,6.7
			c-1.2,0-1.7-1.2-2.8-1.5c-2.4-0.5-4.6,0.5-6.5,0.4c-0.7,0-1.4-0.5-2.1-0.5c-1.6-0.1-3,0-4.4-0.4c-1-0.3-2-1.5-3-0.5
			c0.5,1.2,2,1.7,3,2c1.2,0.4,2.7,0.5,4.1,0.8c1.3,0.2,2.6,0.9,3.8,1.1c1.7,0.3,3.4,0.2,5,0.7c0.6,0.2,1,0.6,1.6,0.8
			c1.9,0.6,3.7,0.9,5.2,1.5c2.1,0.8,3.6,1.6,5.3,2.8c0.8,0.6,1.3,1.5,2.1,2c0.9,0.5,2.1,0.9,3,1.5c2.4,1.4,5.2,2.4,7.5,4
			c1.1,0.7,1.9,2.5,3.7,1.7c0.2-1.2-1-2-1.7-2.6c-0.8-0.7-1.6-1.6-2.5-2.2c-1.7-1.4-4.3-2.1-5-4.4c0.7-1.6,2.4-0.3,3.7-0.1
			c0.6,0.1,1.2-0.1,1.7,0c0.7,0.1,1.3,0.7,2.1,0.9c1.8,0.5,4.2,0.8,6.1,1.3c0.9,0.2,1.9,0.6,2.6,0.7c1,0.1,2.8,0.4,3.6-0.7
			c-0.4-1.5-2.4-2-4-2.9c-1.5-0.8-3.2-2.3-4.6-2.6c-0.7-0.2-1.6,0-2.3-0.1c-0.9-0.2-1.8-0.5-2.6-0.7c-0.8-0.2-2.1-0.1-2.2-1.2
			c1.1-1.2,2.9,0.2,4.4,0.5c1.1,0.3,2.3,0.2,2.9,0.9c1.8-0.4,2.6,0.6,4.1,1.1c1.8,0.6,3.6,1,5.6,1.6c0.8,0.2,2.1,1,2.6,0
			C246.5,370.7,245,370.7,244.1,370.4z"/>
		<path class="st1" d="M136.8,70c1.5-0.1,5.2-0.4,7.1-0.1c1.3,0.2,3.3,1.6,4,2.5c0.6,0.8,0.8,2.3,1.3,3.6c0.3,0.8,2.8,4.4,0.5,4.9
			c-1.1,0.2-2.4-1.9-3.2-2.6c-1.7-1.7-3-3.2-5.9-3.6c-1-0.1-2.3,0.1-3.4,0c-1.1-0.1-2.1-0.7-2.6-0.7c-1,0-1.9,0.7-2.8,0.8
			c-1,0.1-1.9-0.2-3,0.1c-1.4,0.4-3.4,1.3-4.6,1.9c-0.8,0.4-1.2,1.1-1.9,1.4c-0.4,0.2-1,0.2-1.6,0.5c-1.3,0.7-2.5,2.3-3.6,1.7
			c-1.5-0.9,0.6-2.8,1.3-3.4c1.3-1.2,2.1-2.2,3.2-2.6c0.7-0.3,1.6-0.4,2.5-0.8c0.7-0.3,1.4-0.9,2.1-1.2c0.7-0.3,1.5-0.3,2.2-0.5
			c2-0.6,4.9-2,8.1-1.9C136.6,70,136.7,70,136.8,70z"/>
		<path class="st1" d="M182.4,80.4c1-2.9,4.7-4.5,7.9-2.9c1.5,0.7,4.3,3.3,5.2,4.6c0.7,1,1.4,3.5,0.1,3.8c-1.4,0.4-2.3-1.5-3.2-2.2
			c-0.6-0.5-1.5-0.9-2.2-1.5c-1.1-0.8-1.7-1.5-2.9-1.7C185.2,80.3,184.1,81.7,182.4,80.4z"/>
		<path class="st1" d="M135.3,88c0.1,0.8-0.8,1.3-0.8,2.1c0,0.8,0.6,1.1,0.9,1.8c1.1,2.5,0,6.2-0.5,8.7c-0.5,2.2-0.8,2.8-2,4.5
			c-0.9,1.3-1.7,2.9-3,3.8c-0.8,0.6-2,0.4-2.4,1.7c0.6,1.3,2.1,0.6,3.3,0.7c2.3,0.1,4.9,0.9,6.9,1.2c1-0.5,0.5-1.4,0.9-2.2
			c0.7-1.5,2.7-2.5,3.3-4c0.5-1.2,0.9-4,1.1-5.4c0.4-3.6-1.3-8.2-3-10.1c-0.8-0.8-2-1-2-2.4c0.8-0.9,1.6-0.1,2.4,0.3
			c1.8,0.9,2.5,1.2,3.7,2.9c0.4,0.6,1.1,1.3,1.3,1.9c2.1,4.8,0.8,12.9-2.1,17.1c-0.7,1-1.7,1.3-2.1,2.2c0.3,1,1.6,0.9,2.4,1.3
			c1.4,0.7,2.7,1.6,2.6,3.7c-0.3,0.2-0.5,0.4-0.7,0.7c-1.1-0.1-2.6-0.2-3.8-0.8c-0.9-0.4-1.4-1.2-2-1.5c-0.7-0.3-2-0.7-2.9-0.9
			c-2-0.6-3.8-0.5-6.3-0.8c-1-0.1-2.2-0.8-3.3-1.1c-1-0.3-2.1-0.3-3.2-0.5c-1.5-0.4-2.8-1.2-4.1-1.7c-1.8-0.7-3.2-1-4.6-2.2
			c-1.2-1-4.4-5-1.6-5.4c2.2-0.3,1.9,2.6,3.2,3.4c0.9-0.3,0.5-1.4,0.5-2c0-0.7,0.1-1.5,0.1-2.2c0.1-1.4,0.6-2.6,0.8-4
			c0.2-1.4,0.4-2.2,0.9-3.4c0.9-2,1.4-2.8,2.9-4.4c2-2.1,4.6-3.6,8.6-4C132.3,86.9,134.1,87.1,135.3,88z M123.8,99.1
			c1.8,0.1,1.9-4.4,0.1-4C122.8,95.4,122.1,99,123.8,99.1z"/>
		<path class="st1" d="M113.1,87.7c3.6-0.6,0.3,5.4,0,7.3c-0.3,1.9-0.2,2.9-1.2,3c-1.4,0.2-2-2.2-2.1-3.7
			C109.6,91.4,111.1,88.1,113.1,87.7z"/>
		<path class="st1" d="M111.1,109.7c-0.8,0-1.3-0.1-1.8-0.3c-1.2-0.5-3.1-2.9-4-4.4c-0.6-0.9-1.4-2.7-1.2-3.8
			c0.2-1.1,1.6-1.8,2.9-1.3c1.5,0.6,1.8,3.1,2.9,4.8C110.8,106,113.7,108.1,111.1,109.7z"/>
		<path class="st1" d="M184.8,116.7c0.5-1.1,1.3-0.6,2-0.8c3.3-0.8,6.7-2.4,8.6-4.6c0.6-0.8,1.1-2.7,2.4-2.9
			c0.9-0.1,1.6,0.5,1.7,0.9c0.5,1.7-2.2,4-2.9,4.6c-1.4,1.3-3.8,2.1-6.2,2.9C188.6,117.4,186.3,118.1,184.8,116.7z"/>
		<path class="st1" d="M118.4,125.9c0.7-0.2,1.6-0.1,2.2,0.4c0.7,0.6,1.7,2.5,1.7,3.3c0,1.4-1.4,2.9-2.5,2.9
			C117.7,132.5,115.6,126.8,118.4,125.9z"/>
	</g>
</g>
<path class="st1" d="M201.2,227.4c-0.3-1.2-1-1.9-1.6-3c-1.3-2.4-2.3-3.6-4.2-5.3c-6.4-5.6-13.9-9.2-22.1-11.8
	c-9.4-3-20.6-4.9-32.1-4.1c-5.9,0.4-11.3,0.8-16.6,1.9c-3.8,0.8-7.7,1.7-11,3.2c-1.2,0.5-2.4,0.8-3.6,1.3c-4.6,1.9-8.6,4.3-12.6,7.2
	c-3.7,2.7-7.8,6.5-9.9,11.1c-1.4,3-1.8,6.9-2,11.8c-0.1,1.6-0.1,3.2-0.1,4.8c0,1.7,0,3.5,0.1,4.9c0.1,1.1,0.6,2.4,0.9,3.7
	c0.3,1.4,0.5,2.6,0.9,3.7c1,2.8,1.8,5.7,3.1,7.7c0.6,1,1.6,1.8,2.5,2.8c1,1.2,1.6,2.3,2.5,3c1.6,1.2,3.4,2.2,5.2,3.5
	c1.7,1.2,3.6,2.2,5.5,3.2c10.8,6,24.7,9.9,39.5,9.9c15.1,0,29.2-3.1,40.2-8.7c2.8-1.5,5.1-3.9,7.3-6c0.8-0.8,1.6-1.4,2.3-2.2
	c0.5-0.5,0.9-1.5,1.4-2.3c0.9-1.5,1.4-3.1,2.4-4.4c0.6-0.7,1.1-1.3,1.4-2.1c0.6-1.4,0.8-3.5,1.4-5.3c0.5-1.7,1.1-3.4,1.3-5.2
	c0.1-1,0.1-2.2,0.2-3.2c0.1-1,0.3-2,0.4-3C204.5,237.4,202.7,232.3,201.2,227.4z M164.7,260.2l-1,1.9l-0.1,0l0.7,1.7l0.2,1.7
	l-0.2,1.8l-0.7,2l-1.4,1.6l-1.5,1.5l-1.8,1.1l-0.1-0.3l0.5-1.7l0-2.1l-1.9-1.2l-2.2,0l-2.1,0.4l-2.1,0.5l-2.1,0.4l-2.2,0.1l-2.2,0.1
	l-2.1,0.4l-2.2,0.2l-1.9-0.5l-1.8-0.8l-1.6-1.1l-1.5-1.2l-0.1-0.1l-0.9,1.7l-1.6,1l-1.9,0.2l-2-0.8l-1.9-1.1l-1.5-1.6l-1.1-1.9
	l-1-1.9l0.3-0.2l1.6,1l1.8,0.5l1.9-0.3l1.2-1.5l0-1.9l0-1.9l-0.1-2.2l-0.3-2.2l0-2.2l-0.2-2.1l-0.4-2.1l-1.1-1.9l-1.7-1.3l-1.8-1.2
	l-0.2-0.4l2-0.7l1.8-1.1l1-1.9l0.8-2l0.3-2.1l0.2-2.2l0.3-2.2l0.3-2.2l0.3-1.9l-0.4-1.8l-0.7-1.8l-1.9-0.5l-1.8,0.5l-1.6,0.9
	l-0.2-0.2l1-1.9l1.3-1.7l1.7-1.3l1.8-1.1l2.1-0.5l1.9,0.3l1.4,1.3l0.9,1.7l0.2-0.2l1.7-1.2l1.7-1.3l2.1-0.1l1.9,0.5l1.6,1.1l0.8,1.8
	l0.9,1.7l0.6,1.9l-0.5,0.3l-1.3-1.3l-1.7-0.3l-2,0.1l-1.2,1.6l-0.9,1.7l-0.5,1.9l-0.1,2.2l0,2.2l-0.1,2.2l-0.2,2.1l0.7,2l1,1.9
	l1.5,1.6l1.9,1l0,0.1l-1.8,1.1l-1.9,1l-1,1.9l-0.8,2l-0.4,2.1l0.2,0.5l0,2l0.5,1.9l0.6,1.9l1,1.7l1.6,1.2l1.9,0.5l2,0.2l2,0l2,0
	l1.9-0.7l2,0.1l1.9-0.6l1.7-1l2-0.5l1.4-1.5l1-1.6l-0.2-1.9l-0.6-1.9l0.1-0.6l2,0.4l1.6,1.1l1.4,1.4l0.3,2l0.2,1.9L164.7,260.2z"/>
</svg>
