<?xml version="1.0" encoding="UTF-8"?>
<svg id="Layer_1" xmlns="http://www.w3.org/2000/svg" version="1.1" viewBox="0 0 410 410">
  <!-- Generator: Adobe Illustrator 30.1.0, SVG Export Plug-In . SVG Version: 2.1.1 Build 136)  -->
  <path d="M257.2,13.6c-.3-.1-.7-.2-1-.3-.3,0-.6-.1-.9-.2-16-4.2-32.8-6.4-50.2-6.4C95.6,6.6,6.6,95.6,6.6,205s62.1,168.5,146.3,191.5c.3.1.7.2,1,.3.3,0,.6.1,1,.2,16,4.2,32.8,6.4,50.2,6.4,109.4,0,198.4-89,198.4-198.4S341.3,36.5,257.2,13.6ZM35.9,205c0-68.8,41.3-128.2,100.5-154.5,1.4-.6,2.7.9,1.9,2.2-3.2,5.2-5.9,10.8-8.2,16.9-10,27.3-6.8,54.7,9.2,79,12.2,18.4,31.4,33.9,52.4,43.4l-1.4,11.2c0,.2,0,.5,0,.7l-.6,5.2c-3.5-.6-7.1-1-10.6-1.2-22.6-1.2-54,5.7-73,23.9-11.7,11.1-17.8,25.5-17.7,41.6.1,18.4,7.6,29.6,13.9,35.8,14.5,14.3,34.4,14.6,36.6,14.5,49.2,0,69.8-44.6,75.3-75,12.3,6.8,23.9,16.5,31.9,28.6,10.9,16.5,13,34.3,6.2,52.8-7,19-20.7,31.5-40.9,37.4-17.7,5.1-36.8,3.9-49.1,1-72.6-19-126.3-85.1-126.3-163.6ZM186.1,238.2c-1.3,10-9.3,56.2-47.2,56.2,0,0-6.3-.1-12-3.1-3.9-2.1-9.1-6.3-9.2-18,0-8,2.8-14.6,8.6-20.2,8.6-8.2,27.2-16,47.2-16s2.7,0,4.1.1c2.7.1,5.6.5,8.5,1.1ZM273.4,359.6c-1.4.6-2.7-.9-1.9-2.2,3.3-5.3,6.1-11,8.3-17.1,10-27.3,6.8-54.7-9.2-79-12.2-18.4-31.4-33.9-52.4-43.4l1.4-11.2c0-.2,0-.5,0-.7l.6-5.2c3.5.6,7.1,1,10.6,1.2,22.6,1.2,54-5.7,73-23.9,11.7-11.1,17.8-25.5,17.7-41.6-.1-18.4-7.6-29.6-13.9-35.8-14.5-14.3-34.4-14.6-36.6-14.5-49.2,0-69.8,44.6-75.3,75-12.3-6.8-23.9-16.5-31.9-28.6-10.9-16.5-13-34.3-6.2-52.8,6.9-18.9,20.7-31.5,40.9-37.3,17.7-5.1,36.7-3.9,49.1-.9,72.6,19,126.3,85.1,126.3,163.6s-41.4,128.3-100.6,154.6ZM223.9,171.6c1.3-10,9.3-56.2,47.2-56.2,0,0,6.3.1,12,3.1,3.9,2.1,9.1,6.3,9.2,18,0,8-2.8,14.6-8.6,20.2-9.2,8.8-29.7,17-51.2,15.9-2.7-.1-5.6-.5-8.5-1.1Z"/>
</svg>