<?xml version="1.0" encoding="utf-8"?>
<!-- Generator: Adobe Illustrator 27.2.0, SVG Export Plug-In . SVG Version: 6.00 Build 0)  -->
<svg version="1.1" id="Layer_1" xmlns="http://www.w3.org/2000/svg" xmlns:xlink="http://www.w3.org/1999/xlink" x="0px" y="0px"
	 viewBox="0 0 1814.2 516.3" style="enable-background:new 0 0 1814.2 516.3;" xml:space="preserve">
<g>
	<path d="M0,391.6h5.8c24.7,0,36.3-14.5,36.3-45V161c0-30.5-11.6-45-36.3-45H0V0h233.5v116h-15.2c-23.9,0-35.5,13.8-35.5,41.3v187.1
		c0,29,11.6,44.2,32.6,44.2h2.9c35.5,0,53.7-39.2,53.7-116v-0.7h113.8v235.7H0V391.6z"/>
	<path d="M430,405.3V288.6c0-29.7-11.6-43.5-35.5-43.5h-7.3V145h177.6v219c0,29.7,13.1,46.4,35.5,46.4c23.2,0,37-17.4,37-48.6v-73.2
		c0-29.7-11.6-43.5-35.5-43.5h-7.3V145h177.6v219c0,29.7,11.6,43.5,35.5,43.5h7.3v100.1H641.7V451c-13.8,41.3-50.8,65.3-98.6,65.3
		C475.7,516.3,430,471.3,430,405.3z"/>
	<path d="M837.5,405.3V288.6c0-29.7-11.6-43.5-35.5-43.5h-7.3V145h177.6v219c0,29.7,13.1,46.4,35.5,46.4c23.2,0,37-17.4,37-48.6
		v-73.2c0-29.7-11.6-43.5-35.5-43.5h-7.3V145h177.6v219c0,29.7,11.6,43.5,35.5,43.5h7.3v100.1h-173.3V451
		c-13.8,41.3-50.8,65.3-98.6,65.3C883.2,516.3,837.5,471.3,837.5,405.3z"/>
	<path d="M1238.5,407.5h7.3c23.9,0,35.5-13.8,35.5-43.5V143.6c0-29.7-11.6-43.5-35.5-43.5h-7.3V0h177.6v293.7l40.6-37
		c13.1-11.6,8.7-23.2-4.3-23.2h-8V145h176.9v100.1h-7.3c-23.9,0-35.5,13.8-57.3,34.1l-18.1,16c45,8.7,73.2,42.8,73.2,86.3
		c0,16,10.9,26.1,29,26.1h8v100.1h-107.3c-41.3,0-64.5-22.5-64.5-63.8v-45c0-34.1-14.5-50.8-43.5-50.8h-17.4v16
		c0,29.7,9.4,43.5,29.7,43.5h6.5v100.1h-213.9V407.5z"/>
	<path d="M1653.9,442.3c0-44.2,32.6-74,79.8-74s79.8,29.7,79.8,74s-32.6,74-79.8,74S1653.9,486.5,1653.9,442.3z"/>
</g>
</svg>
